<?xml version="1.0" encoding="UTF-8"?>
<svg id="Layer_1" xmlns="http://www.w3.org/2000/svg" viewBox="0 0 2687.89 1595.67">
  <path d="M1655.4,1595.67c-40.63,0-82.94-8.39-126.12-25.03-46.43-17.89-94.01-45.41-141.43-81.78-87.6-67.19-173.29-163.36-247.81-278.1-92.3-142.12-160.4-302.46-191.77-451.47-6.52-30.97-11.44-61.31-14.76-90.89-245.26,107.16-536.53,261.61-871.85,462.49L0,1027.94c342.71-205.3,642.83-364.36,892.02-472.77,12.6-5.48,25.11-10.85,37.51-16.1.17-2.95.36-5.88.57-8.8,5.64-78.22,25.05-148.05,57.69-207.55,25.01-45.58,59.27-87.78,101.83-125.45,41.17-36.42,90.17-68.65,145.66-95.79,54.74-26.77,115.97-48.67,181.98-65.09,66.45-16.52,138.05-27.56,212.81-32.81,156.86-11.01,324.39,3.01,497.94,41.67,187.16,41.7,375.52,111.01,559.86,206.03l-54.98,106.66c-335.26-172.81-688.42-256.15-994.42-234.66-263.36,18.49-467.28,114.62-545.49,257.15-17.35,31.62-29.68,67.75-36.92,107.77,52.84-20.04,103.35-37.58,151.13-52.49,89.17-27.82,171.8-47.36,245.62-58.08,133.06-19.33,242.14-11.53,333.47,23.86,82.55,31.98,137.19,81.64,179.75,125.99,39.75,41.42,71.78,93.64,95.2,155.21,21.39,56.23,35.2,119.09,41.06,186.82,11.29,130.76-7.84,269.82-53.89,391.57-34.18,90.38-82.53,167.85-139.82,224.04-31.88,31.27-66.78,56.36-103.72,74.58-39.68,19.57-81.93,31.34-125.58,34.97-7.89.66-15.85.98-23.88.98ZM1049.63,619.83c2.3,36.4,7.65,74.74,16.07,114.74,28.4,134.9,90.54,280.8,174.98,410.83,67.17,103.43,143.31,189.27,220.2,248.24,76.02,58.31,148.1,86.48,208.45,81.46,111.44-9.26,208.69-102.74,266.82-256.45,39.23-103.75,56.21-227.24,46.57-338.8-9.89-114.54-46.57-210.17-103.29-269.27-74-77.12-166.57-149.46-409.38-114.18-116.17,16.88-256.58,58.14-420.44,123.43Z"/>
</svg>