<svg width="1313" height="662" viewBox="0 0 1313 662" fill="none" xmlns="http://www.w3.org/2000/svg">
<path d="M858.722 662C882.713 639.714 905.514 616.482 927.904 593.662C934.749 586.684 941.828 579.472 948.771 572.466C1004.07 516.633 1056.89 475.542 1110.25 446.854C1176.02 411.491 1243.84 394.887 1312.01 397.406V397.247C1296.06 396.655 1280.07 397.071 1264.33 398.532C1246.11 400.222 1227.73 403.333 1209.69 407.776C1176.38 415.985 1142.84 429.097 1110.01 446.745C1056.63 475.444 1003.79 516.547 948.482 572.396C941.544 579.402 934.465 586.618 927.62 593.592C905.202 616.439 882.38 639.694 858.361 662H858.727H858.722Z" fill="url(#paint0_radial_333_3496)"/>
<path d="M13.5419 662C12.3238 661.622 11.1056 661.237 9.88749 660.867C6.89404 659.952 3.94429 659.064 1 658.188V658.414C4.94392 659.59 8.88239 660.789 12.8099 662.004H13.5364L13.5419 662Z" fill="url(#paint1_radial_333_3496)"/>
<path d="M85.778 662C68.3253 656.233 50.7798 650.707 33.1905 645.582C22.1563 642.366 11.4498 639.402 1 636.673V636.926C29.3121 644.321 57.3184 652.857 85.0515 662H85.778Z" fill="url(#paint2_radial_333_3496)"/>
<path d="M856.799 662C893.147 631.751 927.79 598.654 961.324 566.61L961.433 566.505C989.188 539.822 1014.91 517.131 1040.07 497.123C1119.97 433.723 1197.18 399.042 1276.11 391.106C1287.69 389.941 1299.72 389.381 1311.99 389.404V389.217C1299.69 389.194 1287.65 389.754 1276.04 390.923C1253.98 393.142 1231.73 397.515 1209.92 403.929C1189.56 409.914 1168.94 417.858 1148.65 427.543C1112.64 444.728 1077.01 467.458 1039.75 497.03C1014.59 517.038 988.861 539.736 961.1 566.423L960.991 566.528C927.429 598.604 892.748 631.731 856.368 662.004H856.799V662Z" fill="url(#paint3_radial_333_3496)"/>
<path d="M852.637 662C855.69 659.741 858.765 657.44 861.874 655.08C895.845 629.289 932.553 598.366 974.106 560.539C995.213 541.325 1023.35 516.138 1053.81 491.73C1134.42 427.403 1207.43 393.138 1283.57 383.894C1292.73 382.78 1302.16 382.075 1312 381.736V381.526C1302.12 381.861 1292.67 382.57 1283.47 383.687C1262.08 386.285 1240.51 391.001 1219.33 397.698C1199.64 403.929 1179.64 412.091 1159.89 421.955C1125.46 439.143 1090.64 461.932 1053.44 491.617C1022.98 516.033 994.842 541.22 973.729 560.441C932.187 598.261 895.479 629.18 861.519 654.967C858.438 657.304 855.313 659.652 852.15 662H852.637Z" fill="url(#paint4_radial_333_3496)"/>
<path d="M159.298 662C106.617 644.079 54.1228 627.79 1 615.948V616.182C53.8606 627.977 106.104 644.173 158.538 662H159.298Z" fill="url(#paint5_radial_333_3496)"/>
<path d="M845.563 662C853.625 656.774 861.863 651.237 870.351 645.325C909.092 618.335 949.35 586.956 986.774 554.581C1011.33 533.334 1039.16 509.253 1067.54 486.336C1122.34 442.356 1197.27 390.152 1291.02 376.682C1297.71 375.724 1304.69 374.992 1312 374.458V374.221C1304.64 374.754 1297.62 375.49 1290.9 376.456C1250.61 382.243 1211.43 395.304 1171.12 416.382C1138.36 433.505 1104.35 456.348 1067.14 486.216C1038.75 509.136 1010.92 533.221 986.359 554.468C948.946 586.84 908.693 618.211 869.964 645.197C861.945 650.781 853.653 656.416 845.055 662.008H845.557L845.563 662Z" fill="url(#paint6_radial_333_3496)"/>
<path d="M233.877 662H234.718C229.578 660.232 224.624 658.538 219.773 656.891C172.413 640.781 116.155 622.405 57.9792 608.269C38.4016 603.51 19.4522 599.457 1.00537 596.057V596.252C70.0459 609.005 140.774 630.302 219.505 657.082C224.176 658.671 228.945 660.298 233.883 661.996L233.877 662Z" fill="url(#paint7_radial_333_3496)"/>
<path d="M834.599 662C848.72 654.173 863.36 645.423 878.829 635.571C922.07 608.024 963.777 577.957 999.441 548.615C1010.33 539.658 1021.58 530.297 1032.47 521.243C1048.36 508.023 1064.8 494.347 1081.28 480.935C1139.34 434.073 1210.54 384.182 1298.49 369.466C1302.84 368.738 1307.33 368.107 1312.01 367.566V367.301C1307.28 367.846 1302.74 368.481 1298.33 369.221C1259.5 375.72 1221.56 389.322 1182.34 410.806C1150.94 428.006 1118.69 450.25 1080.84 480.807C1064.36 494.218 1047.92 507.894 1032.02 521.115C1021.13 530.169 1009.88 539.534 998.999 548.486C963.345 577.817 921.65 607.876 878.42 635.415C864.468 644.301 849.714 653.304 834.026 662H834.605H834.599Z" fill="url(#paint8_radial_333_3496)"/>
<path d="M279.79 651.447C289.857 654.944 300.072 658.476 310.385 662H311.346C301.028 658.48 290.622 654.889 280.101 651.233C263.222 645.419 247.583 640.15 232.293 635.123C162.783 612.28 83.8005 588.904 1.00537 576.964V577.237C83.6803 589.172 162.564 612.521 231.998 635.341C247.288 640.364 262.921 645.633 279.795 651.447H279.79Z" fill="url(#paint9_radial_333_3496)"/>
<path d="M817.818 662C839.586 652.16 862.343 640.294 887.296 625.82C934.836 598.245 976.826 570.266 1012.1 542.657C1033.26 526.099 1055.08 508.233 1076.17 490.955C1082.43 485.826 1088.71 480.682 1095.01 475.542C1155.55 426.145 1223 378.232 1305.95 362.254C1307.93 361.873 1309.95 361.514 1312.01 361.172V360.872C1309.88 361.222 1307.8 361.592 1305.75 361.986C1268.32 369.194 1231.59 383.333 1193.47 405.206C1163.37 422.481 1132.85 444.128 1094.53 475.394C1088.23 480.53 1081.96 485.674 1075.69 490.807C1054.6 508.085 1032.78 525.951 1011.63 542.505C976.367 570.103 934.394 598.07 886.87 625.633C865.539 638.008 842.361 650.594 816.999 661.996H817.824L817.818 662Z" fill="url(#paint10_radial_333_3496)"/>
<path d="M292.517 629.398L301.05 632.319C330.465 642.385 360.203 652.561 390.067 662H391.148C361.033 652.494 331.044 642.233 301.383 632.082L292.85 629.161C277.801 624.013 261.638 618.697 244.802 613.355C184.698 594.285 131.712 580.407 82.8282 570.924C54.527 565.434 27.3729 561.353 1 558.627V558.868C72.9466 566.271 151.049 583.954 244.485 613.596C261.315 618.935 277.473 624.25 292.517 629.395V629.398Z" fill="url(#paint11_radial_333_3496)"/>
<path d="M790.588 662C823.177 651.237 856.744 636.579 895.768 616.069C947.072 589.102 989.264 563.14 1024.77 536.695C1051.24 516.983 1077.48 495.834 1108.75 470.145C1164.81 424.093 1231.32 373.504 1312 355.358V355.019C1276.43 362.982 1241.3 377.581 1204.67 399.638C1169 421.106 1135.9 447.247 1108.22 469.989C1076.96 495.674 1050.71 516.82 1024.26 536.528C988.773 562.957 946.602 588.904 895.326 615.859C864.129 632.257 829.098 648.998 789.255 662H790.593H790.588Z" fill="url(#paint12_radial_333_3496)"/>
<path d="M305.245 607.35C313.985 610.302 322.9 613.339 331.525 616.279C379.18 632.506 427.747 649.048 476.21 662.004H477.549C428.769 649.013 379.863 632.362 331.886 616.022C323.26 613.086 314.34 610.049 305.6 607.093C290.551 602.007 274.305 596.789 257.312 591.59C198.677 573.654 145.674 560.784 95.2611 552.248C62.6172 546.719 31.3826 543.054 0.989258 541.193V541.489C78.371 546.201 161.368 562.61 256.973 591.855C273.961 597.054 290.196 602.264 305.234 607.35H305.245Z" fill="url(#paint13_radial_333_3496)"/>
<path d="M732.631 662C753.077 658.99 773.321 654.667 793.658 648.978C827.831 639.414 862.966 625.859 904.235 606.318C958.133 580.792 1001.7 556.068 1037.43 530.737C1062.69 512.828 1089.72 491.862 1122.48 464.751C1181.6 415.849 1240.66 370.342 1312 350.198V349.816C1240.37 369.957 1181.16 415.569 1121.91 464.584C1089.15 491.687 1062.13 512.645 1036.88 530.546C1001.18 555.862 957.642 580.566 903.776 606.077C853.598 629.842 798.213 652.385 730.347 662H732.636H732.631Z" fill="url(#paint14_radial_333_3496)"/>
<path d="M317.973 585.298C332.099 590.017 346.514 594.932 360.454 599.686C434.428 624.905 510.771 650.929 584.87 662H587.285C512.59 651.132 435.509 624.866 360.842 599.41C346.902 594.655 332.481 589.741 318.355 585.021C303.251 579.974 286.924 574.861 269.826 569.822C172.348 541.092 83.8498 526.197 0.994629 524.654V524.989C83.7296 526.535 172.107 541.415 269.476 570.111C286.563 575.146 302.874 580.255 317.973 585.298Z" fill="url(#paint15_radial_333_3496)"/>
<path d="M1312 345.311C1284.27 354.855 1256.33 369.069 1227.06 388.52C1196.7 408.692 1168.86 431.48 1135.6 459.179C1104.61 485.001 1076.45 506.391 1049.52 524.569C1013.23 549.067 968.327 572.529 912.243 596.298C824.417 633.515 756.977 648.546 679.464 648.172C652.064 648.04 629.335 646.533 607.944 643.425C535.839 632.958 460.921 607.245 388.477 582.381C369.669 575.924 350.218 569.25 331.121 562.945C315.94 557.934 299.531 552.922 282.357 548.05C226.618 532.24 172.053 521.076 120.186 514.861C79.6545 510.005 39.7236 508.05 1.00537 509.004V509.331C89.2684 507.045 181.612 519.9 281.98 548.362C299.143 553.23 315.536 558.237 330.711 563.245C349.797 569.546 369.249 576.22 388.051 582.677C460.544 607.556 535.505 633.285 607.725 643.768C629.182 646.883 651.971 648.398 679.442 648.53C721.159 648.729 760.987 644.145 801.207 634.515C835.654 626.268 871.083 614.207 912.708 596.567C968.84 572.782 1013.78 549.296 1050.11 524.775C1077.05 506.586 1105.22 485.184 1136.23 459.354C1189.68 414.829 1244.83 368.917 1312.01 345.739V345.311H1312Z" fill="url(#paint16_radial_333_3496)"/>
<path d="M1312 341.576C1254.89 365.097 1206.91 405.382 1156.47 447.75L1149.29 453.77C1119.52 478.743 1090.21 500.55 1062.15 518.587C1024.99 542.478 978.728 564.698 920.699 586.516C833.96 619.134 764.248 632.011 687.593 629.585C660.133 628.717 637.829 626.727 617.41 623.331C550.926 612.272 481.782 588.265 414.916 565.048C391.645 556.968 367.578 548.611 343.865 540.877C328.592 535.897 312.1 530.986 294.855 526.286C193.062 498.537 94.3488 487.804 0.994629 494.273V494.658C94.2067 488.186 192.788 498.903 294.467 526.621C311.696 531.317 328.171 536.224 343.428 541.197C367.135 548.926 391.192 557.279 414.462 565.36C481.372 588.592 550.56 612.615 617.148 623.69C637.633 627.097 659.996 629.091 687.527 629.963C729.064 631.279 768.727 628.039 808.778 620.06C843.58 613.125 879.288 602.564 921.164 586.816C979.247 564.978 1025.56 542.731 1062.76 518.813C1090.84 500.764 1120.18 478.941 1149.97 453.957L1157.14 447.936C1207.4 405.72 1255.22 365.568 1312.01 342.063V341.573L1312 341.576Z" fill="url(#paint17_radial_333_3496)"/>
<path d="M1312 338.773C1264.54 361.908 1223.53 396.826 1180.56 433.435C1174.75 438.388 1168.9 443.373 1162.99 448.365C1133.78 473.038 1104.1 494.654 1074.79 512.606C1036.53 536.029 988.904 557.007 929.166 576.734C842.602 605.321 772.786 615.567 695.726 610.995C667.835 609.34 646.602 606.945 626.882 603.234C565.648 591.707 501.95 569.226 440.343 547.49C412.965 537.828 384.653 527.836 356.614 518.805C341.237 513.852 324.664 509.047 307.364 504.518C202.823 477.162 99.8222 469.105 0.994629 480.499V480.916C99.6802 469.514 202.544 477.559 306.966 504.88C324.249 509.401 340.795 514.203 356.155 519.152C384.178 528.179 412.485 538.167 439.857 547.828C501.502 569.581 565.244 592.077 626.576 603.619C646.362 607.342 667.649 609.741 695.612 611.4C737.023 613.857 776.528 611.968 816.387 605.625C851.631 600.017 887.608 590.944 929.614 577.069C989.418 557.318 1037.12 536.313 1075.42 512.855C1104.76 494.884 1134.46 473.252 1163.69 448.559C1169.6 443.567 1175.45 438.583 1181.27 433.629C1224.03 397.192 1264.86 362.429 1311.99 339.333V338.769L1312 338.773Z" fill="url(#paint18_radial_333_3496)"/>
<path d="M1312 337.005C1273.48 358.971 1239.23 388.734 1203.49 419.817C1194.79 427.387 1185.78 435.218 1176.68 442.96C1147.9 467.446 1117.87 488.868 1087.43 506.629C1047.9 529.682 998.911 549.417 937.644 566.952C851.489 591.618 781.575 599.231 703.871 592.408C685.069 590.757 660.4 588.214 636.365 583.14C580.069 571.263 524.122 551.115 464.892 529.783C433.723 518.56 401.494 506.952 369.375 496.734C353.888 491.808 337.239 487.103 319.884 482.75C212.956 455.927 105.984 450.814 1.95038 467.551C1.63356 467.602 1.3222 467.656 1.00537 467.707V468.162C1.40413 468.096 1.8029 468.026 2.20166 467.964C106.011 451.262 212.759 456.367 319.48 483.135C336.807 487.481 353.435 492.178 368.899 497.1C401.002 507.31 433.22 518.915 464.378 530.133C523.652 551.477 579.637 571.641 636.021 583.534C660.138 588.623 684.861 591.174 703.712 592.829C781.635 599.671 851.73 592.042 938.081 567.318C999.436 549.756 1048.51 529.989 1088.1 506.897C1118.58 489.117 1148.64 467.676 1177.45 443.166C1186.55 435.425 1195.56 427.594 1204.26 420.02C1239.79 389.135 1273.82 359.548 1312.02 337.647V336.997L1312 337.005Z" fill="url(#paint19_radial_333_3496)"/>
<path d="M1312 336.436C1281.78 356.401 1254.1 381.094 1225.35 406.756C1214.06 416.834 1202.38 427.259 1190.37 437.551C1161.93 461.92 1131.55 483.147 1100.06 500.643C1059.12 523.389 1008.77 541.878 946.122 557.17C860.595 578.043 790.582 583.023 712.015 573.822C692.039 571.481 668.561 568.374 645.848 563.047C594.217 550.936 542.929 532.014 488.632 511.983C453.967 499.195 418.122 485.97 382.129 474.666C366.529 469.763 349.791 465.16 332.399 460.986C227.24 435.736 120.607 433.073 15.4646 453.065C10.6358 453.984 5.81237 454.969 1.00537 456.009V456.5C5.89977 455.44 10.8269 454.436 15.776 453.493C120.667 433.548 227.055 436.207 331.978 461.398C349.344 465.569 366.048 470.164 381.621 475.055C417.587 486.352 453.415 499.572 488.069 512.357C542.405 532.404 593.725 551.337 645.438 563.463C668.228 568.806 691.766 571.925 711.786 574.269C790.582 583.498 860.781 578.506 946.515 557.583C1009.27 542.268 1059.73 523.743 1100.74 500.947C1132.27 483.427 1162.7 462.173 1191.17 437.777C1203.19 427.481 1214.87 417.056 1226.16 406.974C1254.66 381.534 1282.1 357.044 1312 337.192V336.436Z" fill="url(#paint20_radial_333_3496)"/>
<path d="M1312 337.227C1289.46 354.306 1268.18 373.909 1246.21 394.159C1232.71 406.604 1218.74 419.47 1204.07 432.142C1175.92 456.437 1145.18 477.473 1112.7 494.658C1070.81 516.827 1017.62 534.565 954.605 547.381C869.898 564.612 799.781 566.956 720.16 555.227C699.2 552.139 676.842 548.518 655.331 542.945C608.124 530.718 561.272 512.949 511.667 494.136C473.763 479.759 434.569 464.895 394.879 452.59C379.152 447.714 362.339 443.213 344.903 439.21C241.246 415.428 134.957 415.21 28.9734 438.571C19.5615 440.647 10.2315 442.94 1.00537 445.44V445.985C10.3572 443.447 19.8128 441.114 29.3557 439.011C135.066 415.709 241.093 415.923 344.482 439.646C361.885 443.637 378.661 448.131 394.355 452.995C434.001 465.289 473.178 480.149 511.066 494.518C560.704 513.346 607.589 531.126 654.867 543.373C676.449 548.962 698.862 552.595 719.865 555.691C761.156 561.773 800.251 563.981 839.39 562.439C875.858 561.006 913.663 556.224 954.96 547.824C1018.11 534.982 1071.41 517.201 1113.41 494.981C1145.94 477.765 1176.73 456.702 1204.91 432.372C1219.6 419.696 1233.57 406.822 1247.07 394.377C1268.77 374.377 1289.78 355.011 1312.01 338.095V337.227H1312Z" fill="url(#paint21_radial_333_3496)"/>
<path d="M1312 339.555C1296.53 352.842 1281.51 367.211 1266.12 381.951C1250.76 396.647 1234.89 411.846 1217.76 426.737C1189.86 450.986 1158.77 471.827 1125.34 488.677C1081.83 510.604 1027.24 527.065 963.088 537.599C880.463 551.17 808.052 550.874 728.299 536.644C708.814 533.167 686.227 528.946 664.803 522.855C621.824 510.628 579.2 493.957 534.075 476.301C493.16 460.296 450.859 443.75 407.623 430.518C391.765 425.666 374.865 421.266 357.401 417.442C255.001 395.027 149.045 397.262 42.4714 424.085C28.5693 427.582 14.711 431.624 0.994629 436.126V436.717C14.7711 432.181 28.7714 428.1 42.9193 424.537C149.203 397.788 254.864 395.557 356.975 417.909C374.4 421.721 391.252 426.11 407.071 430.95C450.263 444.167 492.543 460.709 533.43 476.702C578.583 494.366 621.234 511.052 664.279 523.295C685.774 529.409 708.405 533.638 727.933 537.123C807.91 551.395 880.528 551.691 963.389 538.081C1027.7 527.517 1082.43 511.013 1126.06 489.027C1159.55 472.142 1190.71 451.266 1218.64 426.978C1235.78 412.076 1251.66 396.877 1267.02 382.173C1282.12 367.718 1296.85 353.617 1312 340.556V339.551V339.555Z" fill="url(#paint22_radial_333_3496)"/>
<path d="M1312 343.562C1303.05 352.141 1294.16 361.028 1285.12 370.066C1268.26 386.923 1250.83 404.357 1231.45 421.328C1203.79 445.557 1172.34 466.2 1137.98 482.691C1092.77 504.386 1036.78 519.569 971.577 527.817C890.005 538.132 817.491 535.126 736.449 518.062C716.139 513.786 694.617 509.082 674.291 502.762C635.349 490.655 596.773 475.043 555.935 458.513C512.235 440.826 467.044 422.535 420.383 408.442C404.406 403.618 387.428 399.318 369.915 395.67C268.537 374.54 162.919 379.229 55.9909 409.595C37.555 414.833 19.1409 421.02 1.00537 428.034V428.626C19.1081 421.639 37.6478 415.413 56.5098 410.058C163.127 379.778 268.428 375.101 369.484 396.164C386.947 399.805 403.876 404.089 419.81 408.902C466.41 422.975 511.574 441.254 555.247 458.93C596.112 475.468 634.715 491.091 673.712 503.213C694.104 509.553 715.675 514.265 736.017 518.552C817.289 535.663 890.016 538.681 971.828 528.331C1037.22 520.059 1093.37 504.833 1138.72 483.069C1173.16 466.543 1204.67 445.853 1232.38 421.581C1251.78 404.599 1269.22 387.157 1286.09 370.292C1294.8 361.577 1303.38 353.002 1312.01 344.707V343.559L1312 343.562Z" fill="url(#paint23_radial_333_3496)"/>
<path d="M1312 349.295C1309.1 352.328 1306.19 355.377 1303.27 358.454C1285.23 377.406 1266.58 397.005 1245.14 415.923C1217.69 440.144 1185.89 460.596 1150.62 476.71C1104.29 497.875 1045.32 512.162 980.077 518.038C899.603 525.281 826.979 519.561 744.599 499.483C722.782 494.167 703.144 489.23 683.774 482.676C648.716 470.81 614.018 456.239 577.283 440.814C530.983 421.375 483.109 401.269 433.133 386.378C417.013 381.577 399.948 377.379 382.425 373.909C281.844 353.991 176.559 361.129 69.4943 395.121C46.235 402.504 23.3088 411.281 1 421.234V421.974C23.4891 411.904 46.6173 403.033 70.0842 395.584C176.821 361.697 281.762 354.579 381.988 374.427C399.462 377.885 416.467 382.067 432.537 386.857C482.443 401.729 530.283 421.815 576.545 441.242C613.303 456.679 648.017 471.254 683.124 483.135C702.554 489.713 722.23 494.654 744.08 499.981C826.69 520.114 899.521 525.85 980.246 518.584C1045.7 512.692 1104.88 498.35 1151.36 477.115C1186.72 460.958 1218.6 440.46 1246.11 416.188C1267.57 397.251 1286.22 377.644 1304.27 358.683C1306.85 355.965 1309.43 353.27 1311.99 350.584V349.295H1312Z" fill="url(#paint24_radial_333_3496)"/>
<path d="M1312 356.604C1295.73 374.587 1278.65 392.905 1258.83 410.518C1231.58 434.747 1199.42 455.004 1163.26 470.729C1102.45 497.17 1034.7 505.733 988.576 508.26C909.184 512.61 836.451 504.171 752.754 480.904C734.226 475.752 713.222 469.915 693.262 462.586C661.94 451.087 630.974 437.559 598.188 423.236C549.473 401.955 499.103 379.949 445.888 364.31C429.637 359.532 412.49 355.439 394.933 352.145C342.351 342.273 287.595 340.287 232.195 346.242C183.016 351.526 132.826 363.099 83.0083 380.642C55.2916 390.401 27.7715 402.297 1.01074 415.942V416.768C27.9791 402.975 55.7286 390.954 83.6748 381.117C190.325 343.562 294.904 333.998 394.502 352.694C411.998 355.977 429.085 360.054 445.281 364.817C498.404 380.432 548.736 402.418 597.412 423.684C630.214 438.014 661.198 451.55 692.563 463.065C712.583 470.413 733.619 476.262 752.175 481.422C836.101 504.752 909.042 513.21 988.691 508.848C1034.98 506.313 1102.98 497.719 1164.04 471.173C1200.3 455.405 1232.55 435.094 1259.87 410.806C1279.27 393.551 1296.05 375.638 1312.01 358.021V356.612L1312 356.604Z" fill="url(#paint25_radial_333_3496)"/>
<path d="M1312 365.077C1299.95 378.598 1287.07 392.079 1272.52 405.113C1245.46 429.358 1212.95 449.42 1175.9 464.743C1112.72 490.877 1043.78 497.512 997.076 498.478C918.694 500.098 845.852 488.945 760.899 462.317C741.704 456.301 721.853 450.078 702.74 442.493C675.023 431.488 647.656 419.015 618.678 405.81C567.713 382.585 515.01 358.574 458.632 342.231C442.244 337.484 425.021 333.492 407.432 330.369C354.91 321.047 300.121 320.069 244.578 327.464C195.705 333.971 145.887 346.989 96.5063 366.148C64.2667 378.66 32.1909 394.092 1 411.939V412.854C32.4258 394.817 64.7528 379.233 97.2438 366.623C203.621 325.346 307.834 313.336 406.995 330.938C424.519 334.049 441.676 338.025 457.998 342.756C514.267 359.065 566.92 383.057 617.836 406.262C646.831 419.474 674.215 431.951 701.964 442.971C721.121 450.581 741.005 456.811 760.227 462.835C845.399 489.533 918.454 500.713 997.092 499.086C1043.99 498.116 1113.22 491.449 1176.67 465.207C1213.83 449.833 1246.44 429.708 1273.58 405.397C1287.7 392.749 1300.25 379.68 1311.99 366.569V365.077H1312Z" fill="url(#paint26_radial_333_3496)"/>
<path d="M1312 374.034C1304 382.733 1295.49 391.332 1286.22 399.704C1259.33 423.976 1226.47 443.844 1188.55 458.758C1122.94 484.561 1052.84 489.28 1005.58 488.7C928.085 487.746 855.138 473.879 769.055 443.739L768.563 443.567C749.931 437.045 730.67 430.3 712.228 422.403C687.997 412.021 664.087 400.631 638.78 388.575C585.722 363.298 530.862 337.16 471.381 320.159C454.857 315.435 437.547 311.545 419.935 308.601C367.441 299.816 312.614 299.847 256.962 308.694C208.324 316.424 158.883 330.883 110.01 351.67C73.6075 367.153 37.0306 386.608 1 409.533V410.545C37.2983 387.383 74.1538 367.745 110.824 352.149C216.741 307.102 320.594 292.651 419.499 309.205C437.033 312.141 454.273 316.012 470.726 320.716C530.076 337.678 584.881 363.788 637.884 389.042C663.208 401.106 687.123 412.5 711.382 422.893C729.867 430.81 749.155 437.563 767.809 444.093L768.296 444.264C854.592 474.479 927.751 488.381 1005.51 489.339C1052.98 489.923 1123.41 485.18 1189.31 459.257C1227.37 444.288 1260.35 424.354 1287.31 400.004C1296.16 392.013 1304.31 383.828 1311.99 375.545V374.038L1312 374.034Z" fill="url(#paint27_radial_333_3496)"/>
<path d="M1312 382.683C1308.12 386.6 1304.11 390.479 1299.91 394.303C1273.19 418.606 1239.98 438.279 1201.19 452.777C1148.08 472.633 1081.63 481.917 1014.08 478.926C937.3 475.526 864.244 458.945 777.205 425.164L776.817 425.016C758.589 417.94 739.732 410.627 721.717 402.317C700.855 392.698 680.295 382.434 658.532 371.565C603.536 344.104 546.671 315.708 484.136 298.091C467.459 293.395 450.067 289.609 432.439 286.833C379.95 278.577 325.074 279.613 269.329 289.921C220.877 298.877 171.818 314.781 123.518 337.192C83.3144 355.844 42.6789 379.532 1 408.653V409.774C42.9957 380.35 83.9262 356.448 124.409 337.667C196.803 304.076 308.937 268.102 432.013 287.464C449.553 290.221 466.864 293.994 483.459 298.667C545.841 316.241 602.645 344.606 657.582 372.036C679.355 382.909 699.921 393.177 720.805 402.808C738.864 411.133 757.736 418.458 775.992 425.541L776.38 425.693C863.627 459.553 936.896 476.177 1013.94 479.588C1081.82 482.594 1148.59 473.26 1201.97 453.306C1240.92 438.746 1274.26 419.003 1301.06 394.614C1304.85 391.172 1308.48 387.687 1312 384.17V382.691V382.683Z" fill="url(#paint28_radial_333_3496)"/>
<path d="M1312 390.319C1285.71 413.988 1252.71 432.991 1213.84 446.792C1158.76 466.348 1090.84 474.288 1022.59 469.152C946.318 463.408 873.154 444.112 785.36 406.585C768.356 399.318 749.089 391.082 731.211 382.227C713.61 373.512 696.289 364.427 677.951 354.809C621.163 325.019 562.436 294.212 496.886 276.019C480.072 271.35 462.598 267.666 444.937 265.065C321.13 246.825 209.154 286.346 137.022 322.709C88.5803 347.129 43.1705 377.356 1 409.159V410.385C43.4491 378.302 89.1811 347.784 137.989 323.181C209.853 286.954 321.37 247.572 444.522 265.715C462.084 268.301 479.466 271.969 496.192 276.611C561.567 294.757 620.218 325.525 676.941 355.28C695.284 364.902 712.611 373.991 730.222 382.714C748.139 391.585 767.427 399.829 784.443 407.103C872.438 444.716 945.81 464.058 1022.35 469.821C1090.96 474.985 1159.24 467.002 1214.62 447.341C1253.08 433.688 1285.8 414.969 1311.99 391.705V390.319H1312Z" fill="url(#paint29_radial_333_3496)"/>
<path d="M1312 396.394C1288.23 414.755 1259.56 429.661 1226.49 440.806C1169.42 460.043 1100.03 466.64 1031.1 459.377C955.097 451.371 881.823 429.362 793.51 388.01C774.539 379.127 757.474 371.051 740.693 362.141C726.256 354.478 711.404 346.273 697.037 338.34C638.599 306.066 578.168 272.689 509.63 253.943C492.663 249.305 475.107 245.723 457.436 243.293C333.333 226.24 222.035 269.193 150.525 308.227C97.2383 337.316 48.1031 373.407 1 411.071V412.399C48.4309 374.416 97.9048 337.99 151.568 308.694C222.805 269.808 333.628 227.015 457.026 243.97C474.593 246.385 492.051 249.948 508.92 254.562C577.256 273.25 637.605 306.584 695.967 338.815C710.338 346.752 725.191 354.957 739.639 362.628C756.447 371.553 773.534 379.637 792.516 388.528C881.025 429.969 954.507 452.033 1030.77 460.067C1100.08 467.368 1169.87 460.733 1227.27 441.387C1259.95 430.37 1288.35 415.701 1311.99 397.671V396.394H1312Z" fill="url(#paint30_radial_333_3496)"/>
<path d="M1312 400.794C1291.09 414.599 1266.73 426.001 1239.14 434.821C1180.05 453.711 1109.19 458.961 1039.61 449.603C963.634 439.385 890.251 414.661 801.66 369.431C785.912 361.39 767.651 351.981 750.182 342.051C738.929 335.657 727.37 328.924 716.194 322.417C656.101 287.425 593.96 251.237 522.379 231.871C505.123 227.241 487.479 223.76 469.939 221.525C417.33 214.811 362.295 218.873 306.359 233.589C258.142 246.276 210.257 266.517 164.039 293.753C105.306 328.356 52.2273 371.565 1 413.925V415.331C52.5878 372.667 106.022 329.057 165.148 294.216C235.674 252.658 345.733 206.439 469.54 222.233C486.966 224.457 504.5 227.915 521.653 232.518C592.998 251.821 655.052 287.958 715.058 322.9C726.24 329.411 737.798 336.144 749.057 342.542C766.547 352.484 784.825 361.904 800.59 369.949C889.366 415.273 962.952 440.059 1039.19 450.312C1109.18 459.724 1180.46 454.44 1239.91 435.436C1267.14 426.733 1291.24 415.526 1311.99 401.994V400.798L1312 400.794Z" fill="url(#paint31_radial_333_3496)"/>
<path d="M1312 403.629C1294.15 413.657 1274.05 422.095 1251.79 428.836C1191.55 447.088 1117.31 451.095 1048.11 439.833C971.916 427.43 898.423 399.988 809.811 350.86C789.217 339.439 773.753 330.529 759.665 321.97C751.362 316.923 742.846 311.677 734.614 306.603C673.182 268.76 609.659 229.628 535.129 209.8C517.654 205.177 499.923 201.801 482.437 199.757C429.795 193.503 374.7 198.557 318.699 214.776C270.492 228.737 223.001 250.435 177.542 279.274C126.299 311.786 80.0478 350.778 35.3263 388.489C24.0462 397.998 12.6077 407.636 1.00537 417.247V418.699C13.0556 408.73 24.9311 398.727 36.6318 388.859C81.3314 351.172 127.555 312.199 178.733 279.73C235.887 243.468 351.299 184.959 482.055 200.493C499.42 202.521 517.026 205.878 534.386 210.469C608.648 230.228 672.074 269.302 733.417 307.086C741.655 312.16 750.171 317.406 758.479 322.456C772.578 331.023 788.059 339.945 808.669 351.37C897.462 400.603 971.151 428.108 1047.61 440.553C1117.23 451.885 1191.93 447.851 1252.56 429.478C1274.48 422.839 1294.33 414.568 1312 404.762V403.629Z" fill="url(#paint32_radial_333_3496)"/>
<path d="M1312 405.054C1297.48 411.951 1281.62 417.905 1264.44 422.851C1202.06 440.689 1126.31 443.318 1056.62 430.062C958.358 411.371 877.458 367.99 817.961 332.285C800.612 321.876 784.191 311.646 769.153 301.884C763.674 298.328 758.179 294.738 752.656 291.132C690.051 250.252 625.315 207.981 547.878 187.728C530.354 183.16 512.541 179.885 494.936 177.988C362.481 163.596 247.686 226.198 191.046 264.796C147.542 294.442 108.283 328.632 70.3137 361.701C47.9119 381.211 24.9913 401.164 1 420.386V421.858C25.4938 402.297 48.8515 381.955 71.6738 362.079C109.622 329.033 148.859 294.859 192.308 265.248C248.713 226.809 362.989 164.456 494.564 178.752C512.033 180.633 529.715 183.888 547.119 188.421C624.26 208.592 688.893 250.797 751.395 291.615C756.923 295.221 762.418 298.811 767.897 302.367C782.946 312.137 799.377 322.371 816.737 332.791C876.355 368.57 957.429 412.04 1056.02 430.795C1126.16 444.136 1202.4 441.488 1265.2 423.528C1282.07 418.676 1297.68 412.858 1311.99 406.133V405.062L1312 405.054Z" fill="url(#paint33_radial_333_3496)"/>
<path d="M1312 405.389C1236.36 435.658 1139.37 436.394 1065.12 420.292C954.43 396.289 862.021 339.544 778.641 281.798L770.344 276.042C692.76 222.222 612.532 166.575 507.434 156.216C454.551 151.006 399.325 158.086 343.291 177.26C295.625 193.573 247.648 218.834 204.555 250.318C166.869 277.845 132.941 308.644 100.133 338.426C68.8497 366.822 36.6428 396.04 1 422.594V424.034C37.2164 397.184 69.8548 367.566 101.554 338.796C134.345 309.029 168.251 278.254 205.893 250.754C248.872 219.356 296.696 194.168 344.192 177.914C399.844 158.868 454.65 151.836 507.084 157.003C611.571 167.303 691.613 222.825 769.017 276.517L777.314 282.273C860.819 340.108 953.403 396.947 1064.44 421.028C1121.27 433.349 1183.52 435.047 1239.71 425.798C1266.07 421.464 1290.3 414.895 1312 406.297V405.382V405.389Z" fill="url(#paint34_radial_333_3496)"/>
<path d="M1312 386.993C1235.18 419.447 1133.49 420.428 1056.86 404.046C1002.83 392.511 948.82 372.827 891.748 343.87C845.388 320.439 802.267 293.359 769.874 272.382L761.052 266.661C725.098 243.32 687.915 219.184 647.787 199.305C596.882 173.88 548.506 159.449 499.89 155.188C438.126 149.744 373.34 160.593 307.343 187.432C269.466 202.759 232.599 222.744 197.765 246.821C159.828 272.989 125.458 302.09 92.2238 330.233C63.1633 354.836 33.3272 380.081 0.994629 403.454V404.86C33.8734 381.195 64.1466 355.584 93.6168 330.63C126.834 302.503 161.182 273.422 199.07 247.284C233.817 223.265 270.585 203.335 308.348 188.055C373.952 161.376 438.29 150.586 499.568 155.987C547.851 160.216 595.948 174.577 646.624 199.885C686.68 219.733 723.825 243.846 759.752 267.168L768.574 272.888C800.989 293.881 844.153 320.988 890.568 344.446C947.788 373.477 1001.96 393.22 1056.18 404.794C1112.51 416.834 1174.12 418.82 1229.66 410.374C1260.08 405.751 1287.75 398.209 1311.99 388.045V386.997L1312 386.993Z" fill="url(#paint35_radial_333_3496)"/>
<path d="M1312 368.921C1234.85 403.723 1130.23 404.996 1048.59 387.792C995.202 376.573 941.205 357.69 883.516 330.065C837.358 308.134 795.739 283.834 761.112 262.954L754.361 258.877C717.664 236.704 679.716 213.779 639.075 194.869C587.301 170.777 540.679 157.836 492.357 154.145C431.702 149.448 367.419 160.239 301.301 186.221C263.167 201.205 226.05 220.415 190.986 243.312C152.89 268.087 118.165 295.451 84.5817 321.919C57.7499 343.064 30.2735 364.708 1 385.066V386.429C30.7925 365.79 58.7059 343.808 85.9528 322.336C119.514 295.887 154.223 268.534 192.269 243.791C227.251 220.948 264.265 201.793 302.29 186.848C368.031 161.014 431.882 150.282 492.073 154.943C540.061 158.611 586.416 171.489 637.949 195.469C678.514 214.344 716.429 237.249 753.093 259.403L759.845 263.48C794.505 284.376 836.162 308.698 882.374 330.657C940.2 358.348 994.356 377.282 1047.93 388.54C1103.75 400.304 1164.73 402.57 1219.62 394.93C1254.22 390.113 1285.35 381.596 1312 369.805V368.929V368.921Z" fill="url(#paint36_radial_333_3496)"/>
<path d="M1312 350.619C1234.06 387.585 1124.52 389.022 1040.33 371.546C987.571 360.638 935.126 343.076 875.284 316.269C827.738 294.972 784.606 271.556 752.345 253.534L746.811 250.438C709.672 229.652 671.27 208.156 630.356 190.45C578.654 168.074 532.408 156.209 484.824 153.113C425.163 149.141 361.383 159.877 295.265 185.017C256.995 199.57 219.631 218.004 184.212 239.808C146.073 263.141 111.097 288.737 77.2673 313.488C52.626 331.518 27.4548 349.933 1.00537 367.484V368.808C27.9464 350.989 53.5492 332.262 78.6002 313.928C112.408 289.189 147.368 263.612 185.463 240.306C220.8 218.55 258.071 200.162 296.232 185.652C361.989 160.648 425.36 149.97 484.579 153.911C531.84 156.984 577.818 168.791 629.275 191.061C670.112 208.736 708.481 230.212 745.582 250.98L751.116 254.076C783.405 272.109 826.575 295.544 874.181 316.868C934.159 343.738 986.746 361.347 1039.68 372.285C1095 383.769 1155.35 386.324 1209.59 379.474C1248.49 374.563 1283.13 365.093 1312.01 351.627V350.611L1312 350.619Z" fill="url(#paint37_radial_333_3496)"/>
<path d="M1312 332.371C1242.12 366.826 1134.67 376.265 1032.06 355.295C980.426 344.801 927.992 328.013 867.041 302.468C819.042 282.351 775.839 260.715 743.567 244.114L739.716 242.128C701.997 222.681 662.989 202.568 621.633 186.026C569.99 165.371 524.122 154.585 477.286 152.081C418.635 148.833 355.363 159.511 289.218 183.818C251.21 197.786 213.595 215.446 177.428 236.311C139.769 258.032 104.913 281.626 71.2094 304.442C48.4035 319.878 25.1605 335.607 1.00537 350.759V352.044C25.6358 336.635 49.2939 320.622 72.5095 304.906C106.197 282.102 141.031 258.523 178.651 236.825C214.742 216.011 252.259 198.39 290.168 184.457C355.964 160.278 418.848 149.651 477.079 152.879C523.603 155.368 569.209 166.1 620.606 186.657C661.891 203.168 700.861 223.261 738.547 242.693L742.398 244.679C774.698 261.291 817.939 282.947 865.992 303.087C927.074 328.687 979.64 345.513 1031.43 356.043C1086.25 367.246 1145.97 370.081 1199.57 364.03C1242.88 359.139 1281.1 348.738 1312.02 333.578V332.375L1312 332.371Z" fill="url(#paint38_radial_333_3496)"/>
<path d="M1312 314.52C1242.11 351.016 1131.88 360.786 1023.79 339.049C972.795 328.858 921.912 313.321 858.804 288.667C820.992 273.897 782.744 257.249 734.789 234.691L733.281 233.982C694.77 215.816 654.954 197.027 612.904 181.602C561.469 162.735 515.977 153.027 469.743 151.045C411.96 148.572 349.185 159.192 283.171 182.611C245.141 196.104 207.28 212.989 170.643 232.806C133.395 252.95 98.6913 274.629 65.1352 295.591C43.4983 309.107 22.4403 322.258 1 334.894V336.132C22.8773 323.266 44.334 309.863 66.397 296.085C99.9368 275.131 134.618 253.464 171.829 233.343C208.389 213.573 246.162 196.723 284.1 183.265C349.781 159.963 412.184 149.39 469.568 151.851C515.496 153.818 560.731 163.479 611.921 182.256C653.894 197.654 693.678 216.423 732.15 234.574L733.658 235.287C781.651 257.865 819.933 274.528 857.788 289.313C921.016 314.014 972.019 329.586 1023.16 339.805C1077.48 350.732 1136.56 353.847 1189.53 348.578C1237.39 343.819 1279.24 332.53 1312 315.673V314.528V314.52Z" fill="url(#paint39_radial_333_3496)"/>
<path d="M1312 296.794C1242.74 334.688 1127.52 344.953 1015.53 322.799C952.284 310.381 894.146 290.661 850.566 274.866C812.378 261.027 773.96 245.727 726.01 225.263C689.089 209.453 647.247 191.528 604.175 177.171C552.805 160.044 507.691 151.411 462.199 150.005C405.438 148.249 343.171 158.81 277.124 181.4C239.078 194.414 200.971 210.528 163.859 229.293C127.293 247.787 92.9995 267.487 59.8312 286.545C39.9696 297.955 20.5722 309.096 0.994629 319.851V321.043C20.9928 310.077 40.778 298.71 61.0494 287.063C94.1958 268.017 128.473 248.328 165.001 229.85C202.036 211.12 240.066 195.041 278.02 182.058C343.756 159.573 405.673 149.059 462.057 150.804C507.254 152.202 552.112 160.792 603.246 177.837C646.236 192.167 688.046 210.072 724.929 225.871C772.917 246.35 811.362 261.661 849.583 275.513C893.239 291.331 951.481 311.089 1014.89 323.539C1126.88 345.696 1242.13 335.587 1311.99 297.966V296.786L1312 296.794Z" fill="url(#paint40_radial_333_3496)"/>
<path d="M1312 279.407C1310.52 280.225 1309.01 281.05 1307.43 281.903C1238.61 318.959 1120.79 328.632 1007.26 306.549C947.187 294.964 892.491 277.841 842.329 261.066C803.72 248.153 765.138 234.204 717.232 215.839C674.919 199.546 636.545 185.06 595.451 172.747C544.12 157.369 499.382 149.814 454.666 148.973C398.178 147.906 338.134 158.121 271.088 180.2C233.036 192.732 194.678 208.07 157.091 225.796C121.557 242.549 88.0121 260.205 55.5703 277.285C37.1507 286.981 19.1136 296.471 1.00537 305.677V306.814C19.5069 297.425 37.9209 287.736 56.7393 277.834C89.1701 260.766 122.699 243.118 158.2 226.377C195.722 208.686 233.997 193.378 271.973 180.874C338.719 158.896 398.446 148.724 454.573 149.783C499.011 150.621 543.503 158.14 594.593 173.448C635.617 185.738 673.953 200.212 716.227 216.49C764.166 234.866 802.775 248.822 841.411 261.747C891.65 278.55 946.438 295.696 1006.65 307.308C1060.73 317.826 1117.05 321.401 1169.54 317.643C1225.16 313.659 1273.25 301.49 1308.63 282.448C1309.79 281.825 1310.91 281.214 1312.01 280.606V279.415L1312 279.407Z" fill="url(#paint41_radial_333_3496)"/>
<path d="M1312 262.806C1307.59 265.158 1302.62 267.662 1296.79 270.478C1226.57 304.391 1112.47 311.989 998.999 290.299C939.654 279.068 884.991 262.88 834.086 247.265C795.477 235.423 755.552 222.44 708.443 206.415C670.233 193.351 629.362 179.643 586.711 168.323C534.686 154.515 491.636 148.226 447.122 147.937C391.749 147.579 332.191 157.739 265.046 178.993C226.995 191.038 188.391 205.605 150.312 222.288C116.308 237.187 83.9754 252.709 52.7026 267.721C35.2499 276.097 18.1249 284.313 1 292.308V293.398C18.5019 285.24 35.9873 276.852 53.8169 268.293C85.0733 253.289 117.395 237.771 151.372 222.888C189.385 206.232 227.918 191.692 265.898 179.671C332.765 158.502 392.022 148.385 447.068 148.744C491.314 149.032 534.14 155.29 585.925 169.036C628.505 180.337 669.331 194.028 707.509 207.085C754.645 223.117 794.587 236.104 833.217 247.954C884.188 263.589 938.922 279.796 998.398 291.054C1051.96 301.292 1107.69 305.131 1159.56 302.164C1214.43 299.021 1262.27 288.262 1297.92 271.05C1303.25 268.472 1307.88 266.155 1312.01 263.974V262.81L1312 262.806Z" fill="url(#paint42_radial_333_3496)"/>
<path d="M1312 247.097C1303.78 251.389 1294.72 255.376 1286.15 259.048C1215.64 289.271 1102.44 295.018 990.728 274.049C932.236 263.188 878.146 248.079 825.837 233.464C786.316 222.424 746.222 210.835 699.648 196.988C661.651 185.621 620.606 173.744 577.971 163.896C525.93 151.875 483.246 146.633 439.579 146.902C385.374 147.237 326.308 157.338 258.999 177.79C220.969 189.344 182.12 203.137 143.538 218.783C111.741 231.681 81.2769 244.956 51.8176 257.794C34.6708 265.267 17.819 272.612 1 279.765V280.809C18.1686 273.515 35.3646 266.023 52.8719 258.394C82.3257 245.559 112.774 232.288 144.549 219.402C183.076 203.779 221.86 190.01 259.83 178.471C326.871 158.101 385.664 148.039 439.568 147.708C482.984 147.439 525.449 152.657 577.266 164.628C619.836 174.46 660.832 186.326 698.796 197.681C745.38 211.528 785.491 223.125 825.024 234.165C877.387 248.791 931.531 263.92 990.133 274.8C1102.4 295.871 1216.23 290.065 1287.19 259.648C1295.4 256.132 1304.05 252.323 1312 248.234V247.093V247.097Z" fill="url(#paint43_radial_333_3496)"/>
<path d="M1312 232.401C1308.68 233.994 1305.31 235.567 1301.86 237.113C1293.91 240.672 1285.22 243.978 1275.51 247.623C1204.77 274.165 1092.48 278.067 982.464 257.802C931.286 248.484 882.74 236.174 835.796 224.274C829.699 222.728 823.636 221.19 817.595 219.667C770.311 207.743 728.856 197.241 690.854 187.568C658.21 179.196 614.887 168.432 569.226 159.476C534.145 152.591 486.851 144.826 432.035 145.874C379.071 146.886 320.491 156.933 252.963 176.59C214.993 187.642 175.898 200.66 136.77 215.286C108.18 225.972 80.5558 236.844 53.8442 247.358C36.0146 254.375 18.48 261.276 1 267.993V269.002C18.8077 262.164 36.6647 255.135 54.8329 247.985C81.5391 237.475 109.152 226.606 137.726 215.925C176.805 201.318 215.846 188.316 253.761 177.28C321.053 157.692 379.376 147.684 432.068 146.676C486.583 145.636 533.67 153.37 568.608 160.223C614.204 169.168 657.478 179.92 690.094 188.284C728.097 197.961 769.557 208.46 816.841 220.388C822.882 221.91 828.946 223.448 835.036 224.994C882.025 236.906 930.614 249.223 981.879 258.558C1092.4 278.916 1205.28 274.971 1276.47 248.262C1286.22 244.605 1294.94 241.287 1302.93 237.705C1306.01 236.322 1309.02 234.92 1312 233.499V232.401Z" fill="url(#paint44_radial_333_3496)"/>
<path d="M1312 218.966C1305.42 221.77 1298.68 224.504 1291.69 227.148C1284.18 229.983 1276.2 232.553 1267.75 235.275L1264.88 236.198C1193.96 259.08 1082.58 261.132 974.199 241.556C930.27 233.717 888.034 223.966 847.19 214.539C834.736 211.665 821.855 208.69 809.346 205.874C761.325 195.052 718.046 185.788 682.054 178.152C636.901 168.483 598.27 161.142 560.48 155.056C525.307 149.39 478.068 143.113 424.497 144.842C372.139 146.532 315.717 156.24 246.922 175.387C209.061 185.925 169.72 198.172 129.997 211.785C106.148 219.959 82.872 228.191 60.3611 236.151C40.3192 243.238 20.6214 250.205 0.994629 256.969V257.939C20.9273 251.077 40.9255 244.002 61.2842 236.805C83.7897 228.846 107.06 220.613 130.898 212.447C170.578 198.849 209.87 186.618 247.687 176.092C316.257 157.007 372.461 147.334 424.562 145.652C477.865 143.93 524.914 150.184 559.95 155.827C597.685 161.906 636.272 169.234 681.387 178.896C717.38 186.532 760.643 195.796 808.653 206.614C821.156 209.433 834.031 212.405 846.486 215.279C887.362 224.714 929.631 234.473 973.626 242.323C1082.47 261.985 1194.41 259.901 1265.75 236.879L1268.61 235.956C1277.09 233.226 1285.1 230.649 1292.65 227.794C1299.31 225.279 1305.73 222.685 1312 220.025V218.978V218.966Z" fill="url(#paint45_radial_333_3496)"/>
<path d="M1312 206.879C1302.16 210.461 1292.07 213.908 1281.52 217.179C1274.92 219.227 1268 221.081 1260.67 223.043C1258.55 223.612 1256.41 224.184 1254.26 224.768C1182.18 244.305 1074.4 244.504 965.934 225.302C929.237 218.888 893.507 211.345 858.957 204.048C839.002 199.834 820.156 195.855 801.098 192.07C751.16 182.147 706.536 174.382 673.248 168.724C632.115 161.653 592.365 155.734 551.735 150.628C514.229 145.92 468.885 141.427 416.953 143.806C366.075 146.138 310.128 155.788 240.88 174.18C203.249 184.172 163.668 195.644 123.229 208.277C106.59 213.475 90.1316 218.686 74.2139 223.721C49.4688 231.552 25.1879 239.231 1 246.634V247.568C25.472 240.088 50.0314 232.319 75.066 224.399C90.9783 219.36 107.437 214.153 124.076 208.954C164.482 196.334 204.03 184.869 241.629 174.885C310.675 156.547 366.419 146.929 417.073 144.604C468.759 142.237 513.934 146.715 551.309 151.407C591.895 156.505 631.602 162.416 672.691 169.484C705.968 175.138 750.564 182.903 800.47 192.817C819.512 196.602 838.352 200.578 858.296 204.792C892.868 212.093 928.62 219.64 965.361 226.061C1016.88 235.181 1070.33 240.092 1119.95 240.259C1171.98 240.434 1218.68 235.322 1255.01 225.473C1257.16 224.889 1259.3 224.317 1261.42 223.748C1268.77 221.782 1275.71 219.92 1282.36 217.856C1292.6 214.679 1302.42 211.334 1311.99 207.86V206.875L1312 206.879Z" fill="url(#paint46_radial_333_3496)"/>
<path d="M1312 196.131C1298.86 200.049 1285.45 203.752 1271.38 207.214C1265.54 208.651 1259.48 209.94 1253.08 211.306C1249.97 211.968 1246.83 212.642 1243.64 213.343C1171.93 229.145 1065.02 227.541 957.669 209.056C928.598 204.048 899.936 198.487 872.214 193.105C844.798 187.786 818.9 182.759 792.844 178.273C742.19 169.546 697.611 163.549 664.437 159.304C627.21 154.464 588.612 150.305 542.978 146.209C505.232 142.821 459.845 139.764 409.415 142.774C359.537 145.749 305.693 155.064 234.844 172.977C197.251 182.478 158.533 192.88 116.466 204.776L101.27 209.075C67.3147 218.686 34.0918 228.082 1 236.976V237.884C34.354 228.923 67.8282 219.461 102.051 209.772L117.242 205.473C159.281 193.584 197.983 183.191 235.554 173.693C306.223 155.827 359.892 146.54 409.573 143.576C459.79 140.582 505.03 143.627 542.661 147.007C588.257 151.096 626.811 155.255 664 160.091C697.152 164.336 741.693 170.321 792.287 179.04C818.31 183.522 844.191 188.545 871.597 193.865C899.33 199.246 928.008 204.811 957.107 209.823C1064.83 228.378 1172.18 229.971 1244.27 214.087C1247.45 213.386 1250.59 212.716 1253.69 212.054C1260.11 210.683 1266.19 209.387 1272.07 207.942C1285.9 204.539 1299.09 200.905 1312 197.07V196.143V196.131Z" fill="url(#paint47_radial_333_3496)"/>
<path d="M1312 186.688C1294.69 190.707 1278.29 194.106 1261.23 197.253C1256.03 198.211 1250.69 199.063 1245.05 199.963C1241.11 200.59 1237.1 201.229 1233.03 201.922C1161.6 214.103 1055.56 210.695 949.41 192.809C927.937 189.192 906.54 185.333 885.854 181.602C850.828 175.286 817.742 169.32 784.601 164.476C733.368 156.987 688.761 152.743 655.631 149.889C617.41 146.516 579.457 144.211 534.233 141.793C494.187 139.651 450.432 138.159 401.876 141.742C340.849 146.248 280.144 159.449 228.813 171.773C192.657 180.453 154.807 189.827 109.709 201.275C73.4708 210.473 37.4292 219.488 1.01074 227.989V228.869C37.675 220.318 73.9515 211.244 110.425 201.988C155.512 190.543 193.351 181.17 229.496 172.494C280.718 160.2 341.281 147.026 402.084 142.536C450.46 138.966 494.089 140.453 534.025 142.591C579.216 145.009 617.137 147.311 655.32 150.679C688.412 153.533 732.958 157.77 784.115 165.247C817.207 170.083 850.271 176.045 885.269 182.358C905.967 186.088 927.369 189.947 948.864 193.569C1055.34 211.509 1161.76 214.916 1233.54 202.681C1237.6 201.988 1241.6 201.349 1245.52 200.726C1251.19 199.823 1256.54 198.97 1261.78 198.004C1278.67 194.889 1294.91 191.528 1312.01 187.568V186.688H1312Z" fill="url(#paint48_radial_333_3496)"/>
<path d="M1312 178.401C1292.14 181.742 1272.23 184.643 1251.09 187.295C1246.43 187.88 1241.7 188.382 1236.69 188.911C1232.07 189.402 1227.29 189.908 1222.43 190.5C1151.54 199.106 1046.39 193.896 941.14 176.559C927.391 174.293 913.565 171.953 900.198 169.686C857.307 162.416 816.792 155.547 776.342 150.683C735.968 145.823 696.016 142.677 646.81 140.476C610.708 138.79 575.518 138.206 538.259 137.591L525.466 137.377C487.567 136.734 443.058 136.411 394.322 140.714C336.572 145.811 277.736 158.078 222.761 170.57L190.729 177.856C160.084 184.827 131.139 191.411 102.936 197.774C66.2441 206.049 32.6169 213.246 1 219.558V220.419C32.8081 214.071 66.6483 206.832 103.58 198.503C131.789 192.14 160.734 185.555 191.379 178.584L223.411 171.298C278.287 158.825 337.004 146.586 394.573 141.504C443.151 137.217 487.561 137.54 525.373 138.179L538.171 138.393C575.404 139.008 610.571 139.592 646.624 141.275C695.754 143.475 735.63 146.614 775.927 151.462C816.305 156.318 856.788 163.183 899.641 170.446C913.014 172.712 926.839 175.056 940.594 177.323C1046.12 194.706 1151.61 199.924 1222.78 191.283C1227.62 190.695 1232.38 190.189 1236.99 189.702C1242.02 189.168 1246.77 188.662 1251.46 188.074C1272.47 185.442 1292.26 182.56 1312 179.246V178.401Z" fill="url(#paint49_radial_333_3496)"/>
<path d="M1312 171.205C1290.32 173.553 1267.34 175.527 1240.96 177.338C1236.78 177.626 1232.56 177.852 1228.1 178.094C1222.84 178.378 1217.39 178.67 1211.82 179.079C1140.92 184.262 1039.25 177.42 932.87 160.305C927.014 159.363 921.174 158.42 915.351 157.478C864.315 149.223 816.114 141.427 768.082 136.882C727.343 133.027 687.216 131.228 637.988 131.056C607.627 130.893 578.293 131.567 547.245 132.283C537.177 132.513 527.017 132.75 516.704 132.957C474.337 133.806 432.516 134.958 386.778 139.674C330.542 145.473 271.935 157.521 216.725 169.359C174.675 178.378 134.116 186.758 96.1731 194.266C63.338 200.761 31.7648 206.548 1 211.692V212.533C31.9505 207.362 63.7095 201.544 96.7467 195.01C134.706 187.498 175.281 179.118 217.342 170.095C272.475 158.269 330.995 146.244 387.079 140.457C432.69 135.753 474.44 134.604 516.736 133.755C527.055 133.549 537.221 133.315 547.288 133.081C578.315 132.369 607.622 131.691 637.938 131.855C687.068 132.026 727.103 133.817 767.749 137.665C815.677 142.201 863.835 149.99 914.822 158.237C920.645 159.18 926.484 160.122 932.34 161.065C1038.95 178.214 1140.89 185.068 1212.02 179.869C1217.56 179.464 1222.99 179.168 1228.24 178.888C1232.71 178.647 1236.94 178.417 1241.15 178.129C1267.44 176.322 1290.37 174.355 1312 172.015V171.197V171.205Z" fill="url(#paint50_radial_333_3496)"/>
<path d="M1312 164.974C1286.42 166.333 1260.5 166.964 1230.83 167.389C1227.06 167.443 1223.22 167.455 1219.3 167.47C1213.47 167.49 1207.44 167.509 1201.22 167.669C1131.57 169.449 1030.75 160.843 924.605 144.059C870.373 135.605 814.295 126.859 759.829 123.089C718.734 120.243 678.437 119.799 629.171 121.648C601.99 122.622 575.879 124.292 548.239 126.056C535.145 126.894 521.609 127.758 507.947 128.545L503.239 128.817C464.242 131.053 423.918 133.362 379.24 138.646C325.418 145.013 269.394 156.318 215.212 167.248L210.689 168.16C169.972 176.372 129.167 183.978 89.416 190.769C59.5635 195.866 30.2298 200.391 1 204.391V205.224C30.3937 201.205 59.8912 196.657 89.9131 191.532C129.696 184.737 170.529 177.124 211.273 168.907L215.796 167.996C269.919 157.077 325.882 145.788 379.584 139.433C424.169 134.16 464.444 131.851 503.392 129.62L508.1 129.351C521.773 128.564 535.314 127.7 548.414 126.863C576.032 125.095 602.121 123.428 629.258 122.458C678.405 120.613 718.592 121.056 759.572 123.891C813.907 127.653 869.92 136.388 924.086 144.834C1030.4 161.645 1131.43 170.263 1201.27 168.479C1207.45 168.319 1213.46 168.3 1219.27 168.284C1223.21 168.273 1227.06 168.257 1230.84 168.203C1260.5 167.774 1286.42 167.147 1312 165.792V164.982V164.974Z" fill="url(#paint51_radial_333_3496)"/>
<path d="M1312 159.585C1279.44 159.663 1248.72 158.506 1220.69 157.447C1217.3 157.318 1213.86 157.159 1210.35 156.999C1204 156.707 1197.44 156.403 1190.62 156.259C1123.44 154.822 1026.03 144.721 916.335 127.813C865.905 120.145 807.429 111.757 751.575 109.296C710.142 107.47 669.67 108.377 620.355 112.244C595.102 114.179 570.946 116.73 545.376 119.429C530.387 121.01 514.885 122.645 499.186 124.141C492.833 124.744 486.392 125.348 479.859 125.959C445.615 129.156 410.212 132.466 371.691 137.622C326.554 143.662 279.385 152.688 233.763 161.415C224.061 163.273 214.354 165.13 204.648 166.96C164.362 174.569 123.316 181.404 82.6481 187.272C55.5868 191.178 28.4819 194.593 0.994629 197.552V198.37C28.6294 195.399 55.8709 191.968 83.0687 188.043C123.775 182.167 164.864 175.329 205.194 167.708C214.906 165.874 224.613 164.016 234.314 162.159C279.893 153.44 327.024 144.421 372.079 138.393C410.535 133.245 445.91 129.939 480.121 126.746C486.655 126.134 493.1 125.535 499.453 124.927C515.163 123.432 530.677 121.796 545.677 120.211C571.225 117.517 595.358 114.97 620.568 113.038C669.752 109.183 710.098 108.28 751.389 110.098C807.09 112.552 865.473 120.928 915.821 128.58C1025.64 145.508 1123.2 155.625 1190.51 157.061C1197.28 157.206 1203.83 157.509 1210.16 157.801C1213.68 157.965 1217.12 158.121 1220.53 158.249C1248.6 159.312 1279.37 160.465 1312 160.391V159.585Z" fill="url(#paint52_radial_333_3496)"/>
<path d="M1312 154.998C1279.11 153.545 1247.72 150.78 1214.97 147.895L1210.55 147.505C1207.51 147.237 1204.45 146.948 1201.34 146.656C1194.48 146.014 1187.4 145.348 1180.02 144.846C1098.18 139.312 985.616 123.198 908.07 111.559C858.596 104.23 800.328 96.5897 743.316 95.4993C701.544 94.701 660.898 96.9635 611.538 102.832C587.482 105.655 564.55 109.035 540.275 112.614C524.106 114.997 507.385 117.462 490.424 119.725C477.937 121.391 465.285 123.003 451.886 124.713C423.891 128.28 394.934 131.972 364.142 136.586C328.444 141.933 291.114 148.829 255.012 155.496C236.549 158.907 217.457 162.431 198.606 165.753C158.506 172.813 117.215 178.876 75.8856 183.771C51.1896 186.696 26.379 189.168 0.989258 191.209V192.023C26.4937 189.975 51.4191 187.494 76.2297 184.558C117.614 179.655 158.959 173.584 199.12 166.516C217.987 163.195 237.084 159.667 255.547 156.255C291.627 149.589 328.93 142.7 364.579 137.361C395.338 132.754 424.273 129.063 452.257 125.5C465.657 123.79 478.319 122.178 490.812 120.511C507.795 118.245 524.526 115.78 540.706 113.397C564.96 109.822 587.864 106.446 611.883 103.626C661.094 97.7735 701.599 95.5149 743.217 96.3132C800.055 97.3997 858.192 105.024 907.573 112.341C985.168 123.989 1097.8 140.114 1179.76 145.656C1187.1 146.154 1194.17 146.816 1201 147.459C1204.11 147.751 1207.19 148.039 1210.22 148.307L1214.65 148.697C1247.49 151.59 1278.97 154.363 1311.99 155.815V155.005L1312 154.998Z" fill="url(#paint53_radial_333_3496)"/>
<path d="M1312 151.076C1277.08 148.043 1244.08 143.541 1209.57 138.825L1200.39 137.571C1197.71 137.205 1195.01 136.828 1192.28 136.446C1184.94 135.414 1177.33 134.347 1169.41 133.448C1113.26 127.088 1044.81 116.874 972.347 106.06C948.525 102.505 923.9 98.8327 899.805 95.3124C832.748 85.6433 781.941 81.4494 735.062 81.7103C692.957 81.9478 652.146 85.5616 602.733 93.4355C579.435 97.1154 556.263 101.504 533.856 105.745C516.933 108.95 499.437 112.264 481.673 115.32C460.62 118.942 438.661 122.415 415.418 126.092C396.463 129.09 376.858 132.19 356.603 135.554C331.459 139.733 306.419 144.308 279.91 149.156C251.401 154.371 221.92 159.76 192.575 164.55C152.552 171.084 111.015 176.372 69.1339 180.27C46.0603 182.42 23.3253 184.048 0.994629 185.263V186.073C23.4073 184.854 46.2296 183.218 69.3961 181.061C111.348 177.155 152.956 171.855 193.051 165.309C222.423 160.516 251.915 155.122 280.44 149.908C306.938 145.064 331.962 140.488 357.09 136.314C377.328 132.949 396.928 129.853 415.877 126.855C439.136 123.179 461.101 119.701 482.175 116.076C499.961 113.015 517.469 109.701 534.402 106.492C556.788 102.252 579.932 97.867 603.192 94.1948C652.447 86.3482 693.11 82.7422 735.045 82.5086C781.755 82.2477 832.42 86.4339 899.319 96.0796C923.409 99.596 948.034 103.272 971.85 106.823C1044.34 117.641 1112.82 127.856 1169.01 134.222C1176.9 135.118 1184.48 136.181 1191.81 137.209C1194.55 137.595 1197.25 137.972 1199.93 138.339L1209.11 139.592C1243.76 144.328 1276.89 148.849 1312 151.89V151.068V151.076Z" fill="url(#paint54_radial_333_3496)"/>
<path d="M1312 147.77C1273.9 142.965 1238.31 136.446 1200.98 129.604L1190.23 127.634C1187.95 127.217 1185.65 126.792 1183.34 126.364C1175.45 124.904 1167.3 123.393 1158.79 122.046C1132.44 117.875 1103.44 113.011 1072.73 107.859C1016.64 98.4511 953.054 87.789 891.535 79.0661C827.034 70.024 774.692 66.4804 726.802 67.9212C684.375 69.1985 643.39 74.1673 593.922 84.035C571.072 88.5639 548.408 93.8132 526.492 98.8872C509.116 102.91 491.15 107.069 472.922 110.916C438.366 118.214 400.8 125.075 361.033 132.338L349.065 134.526C336.103 136.898 322.719 139.402 309.773 141.824C269.728 149.316 228.322 157.065 186.545 163.347C146.532 169.363 104.76 173.884 62.3821 176.777C41.7229 178.187 21.2604 179.157 1 179.764V180.57C21.315 179.959 41.8431 178.989 62.5678 177.576C105.033 174.675 146.892 170.15 186.982 164.118C228.808 157.825 270.241 150.071 310.314 142.575C323.255 140.153 336.638 137.649 349.595 135.282L361.563 133.093C401.352 125.827 438.94 118.961 473.528 111.656C491.784 107.801 509.761 103.638 527.148 99.6115C549.047 94.5414 571.689 89.2999 594.495 84.7788C643.794 74.9462 684.621 69.9929 726.862 68.7234C774.561 67.2903 826.739 70.8223 891.054 79.8372C952.535 88.5561 1016.1 99.2182 1072.17 108.623C1102.89 113.774 1131.9 118.638 1158.26 122.813C1166.73 124.152 1174.87 125.663 1182.74 127.12C1185.05 127.548 1187.35 127.976 1189.63 128.393L1200.38 130.359C1237.89 137.236 1273.65 143.782 1311.99 148.603V147.77H1312Z" fill="url(#paint55_radial_333_3496)"/>
<path d="M1312 145.013C1269.51 138.089 1229.18 128.899 1190.03 119.974L1174.69 116.473C1166.17 114.522 1157.35 112.505 1148.17 110.644L1139.76 108.938C1065.75 93.9261 973.642 75.246 883.27 62.816C820.118 54.2139 767.777 51.453 718.549 54.1321C675.799 56.4569 634.644 62.7771 585.121 74.6346C562.496 80.028 540.11 86.1534 518.463 92.0803C500.846 96.9012 482.629 101.89 464.176 106.516C430.795 114.884 392.967 123.206 341.521 133.498C295.205 142.766 237.559 154.301 180.509 162.147C140.474 167.653 98.4565 171.4 55.625 173.284C37.2928 174.09 19.07 174.519 1 174.643V175.449C19.1027 175.321 37.3584 174.893 55.7288 174.087C98.6586 172.198 140.774 168.444 180.907 162.922C238.051 155.064 295.74 143.522 342.095 134.246C393.584 123.946 431.45 115.612 464.881 107.232C483.361 102.598 501.594 97.6099 519.222 92.7851C540.848 86.8661 563.217 80.7445 585.799 75.3589C635.153 63.5442 676.138 57.2435 718.691 54.9343C767.711 52.2707 819.856 55.0239 882.806 63.5948C973.085 76.0132 1065.14 94.6855 1139.12 109.686L1147.53 111.391C1156.68 113.245 1165.47 115.258 1173.98 117.205L1189.33 120.706C1228.68 129.678 1269.23 138.919 1312 145.866V145.013Z" fill="url(#paint56_radial_333_3496)"/>
<path d="M1312 142.77C1264.77 133.475 1220.15 121.384 1176.91 109.666L1166.56 106.862C1157.22 104.331 1147.56 101.714 1137.54 99.2455C1064.79 81.3092 969.195 59.1127 875 46.5658C813.831 38.4816 759.954 36.445 710.295 40.3391C667.228 43.7153 625.91 51.3945 576.321 65.2303C553.761 71.5077 531.485 78.5443 509.941 85.3512C492.237 90.9432 473.932 96.726 455.425 102.108C419.324 112.602 379.595 122.532 333.972 132.462C290.999 141.82 234.036 153.51 174.467 160.936C134.4 165.928 92.1419 168.907 48.8571 169.78C32.8246 170.103 16.8632 170.122 0.994629 169.893V170.699C16.8741 170.928 32.841 170.909 48.8898 170.586C92.2839 169.71 134.657 166.727 174.833 161.719C234.522 154.277 291.567 142.568 334.595 133.198C380.278 123.253 420.061 113.307 456.223 102.797C474.752 97.4113 493.073 91.6208 510.793 86.0249C532.316 79.2258 554.57 72.1969 577.092 65.9274C626.5 52.1383 667.649 44.4903 710.508 41.1296C759.943 37.2511 813.602 39.2838 874.547 47.3369C968.6 59.8681 1064.11 82.0413 1136.8 99.962C1146.78 102.427 1156.43 105.04 1165.75 107.567L1176.1 110.371C1219.58 122.151 1264.45 134.308 1312 143.635V142.766V142.77Z" fill="url(#paint57_radial_333_3496)"/>
<path d="M1312 140.967C1259.23 128.911 1209.62 113.428 1161.62 98.4316L1159.71 97.8358C1149.18 94.5492 1138.3 91.1496 1126.91 87.8513C1062.83 69.2881 966.142 43.1235 866.735 30.3196C806.533 22.6093 752.656 21.3787 702.041 26.554C658.663 30.9894 617.181 40.0199 567.532 55.8378C544.907 63.0341 522.609 71.0171 501.048 78.7391C483.377 85.067 465.105 91.613 446.691 97.7073C409.661 109.97 369.2 121.317 326.439 131.438C268.324 145.095 216.643 154.351 168.442 159.737C128.074 164.25 86.7449 166.392 42.1053 166.291C28.3234 166.236 14.6289 165.956 1 165.481V166.287C14.6125 166.762 28.2907 167.038 42.0562 167.093C86.8213 167.198 128.265 165.048 168.759 160.519C217.08 155.118 268.87 145.843 327.1 132.159C369.937 122.022 410.469 110.655 447.565 98.3693C466.001 92.2634 484.289 85.7173 501.971 79.3816C523.515 71.6674 545.797 63.6883 568.384 56.5037C617.853 40.7442 659.166 31.7488 702.33 27.3328C752.706 22.1809 806.336 23.4115 866.298 31.0907C965.514 43.8712 1062.07 70.0007 1126.07 88.5406C1137.44 91.835 1148.31 95.2307 1158.83 98.5134L1160.74 99.1092C1208.99 114.183 1258.87 129.756 1312 141.855V140.959V140.967Z" fill="url(#paint58_radial_333_3496)"/>
<path d="M1312 139.6C1311.15 139.382 1310.31 139.168 1309.47 138.95C1254.66 124.658 1202.54 106.652 1149.52 87.9058C1138.95 84.1869 1127.67 80.2383 1116.28 76.4532C1016.78 43.3921 934.858 23.5672 858.47 14.0694C799.279 6.73292 745.408 6.30846 693.787 12.7649C649.95 18.3179 608.299 28.7035 558.743 46.4373C535.937 54.5916 513.508 63.5715 491.817 72.2553C474.282 79.2764 456.157 86.5312 437.951 93.3069C399.659 107.552 359.602 120.036 318.89 130.41C265.063 144.078 212.41 153.541 162.406 158.533C122.044 162.486 79.294 163.919 35.3427 162.794C23.8769 162.49 12.4275 162.011 1 161.392V162.202C12.3893 162.821 23.795 163.296 35.2226 163.596C79.3049 164.721 122.191 163.284 162.69 159.32C212.847 154.312 265.642 144.822 319.606 131.119C360.405 120.722 400.544 108.214 438.907 93.9417C457.135 87.162 475.276 79.8956 492.822 72.8745C514.497 64.1945 536.909 55.2225 559.677 47.0838C609.058 29.4123 650.529 19.0695 694.158 13.5437C745.511 7.11843 799.12 7.54679 858.05 14.8483C934.257 24.3226 1016.02 44.1126 1115.36 77.123C1126.74 80.9003 1138 84.8489 1148.57 88.56C1201.63 107.322 1253.8 125.348 1308.7 139.659C1309.8 139.947 1310.9 140.227 1312.01 140.511V139.596L1312 139.6Z" fill="url(#paint59_radial_333_3496)"/>
<path d="M867.352 0H861.289C959.565 13.2906 1053.83 45.5339 1138.31 78.6067C1196.1 101.228 1253.63 122.727 1311.99 139.468V138.529C1253.99 121.847 1196.79 100.464 1139.33 77.9719C1056.32 45.4716 963.858 13.7735 867.352 0Z" fill="url(#paint60_radial_333_3496)"/>
<path d="M679.016 0C603.562 12.2626 541.945 39.5292 482.311 65.9274C465.006 73.5871 447.116 81.5078 429.221 88.9027C338.074 126.582 246.277 149.604 156.375 157.334C104.448 161.797 52.2595 161.255 1.00488 157.575V158.393C52.3196 162.065 104.59 162.599 156.615 158.125C246.806 150.371 338.871 127.287 430.243 89.5141C448.16 82.1075 466.06 74.1829 483.376 66.5193C544.163 39.6149 607.015 11.8031 684.369 0H679.021H679.016Z" fill="url(#paint61_radial_333_3496)"/>
<defs>
<radialGradient id="paint0_radial_333_3496" cx="0" cy="0" r="1" gradientUnits="userSpaceOnUse" gradientTransform="translate(225.589 88.9843) scale(1195.53 855.662)">
<stop stop-color="white"/>
<stop offset="1" stop-color="#C2C2C2"/>
</radialGradient>
<radialGradient id="paint1_radial_333_3496" cx="0" cy="0" r="1" gradientUnits="userSpaceOnUse" gradientTransform="translate(225.589 88.9817) scale(1195.53 855.666)">
<stop stop-color="white"/>
<stop offset="1" stop-color="#C2C2C2"/>
</radialGradient>
<radialGradient id="paint2_radial_333_3496" cx="0" cy="0" r="1" gradientUnits="userSpaceOnUse" gradientTransform="translate(225.589 88.9841) scale(1195.64 855.741)">
<stop stop-color="white"/>
<stop offset="1" stop-color="#C2C2C2"/>
</radialGradient>
<radialGradient id="paint3_radial_333_3496" cx="0" cy="0" r="1" gradientUnits="userSpaceOnUse" gradientTransform="translate(225.589 88.9845) scale(1195.53 855.662)">
<stop stop-color="white"/>
<stop offset="1" stop-color="#C2C2C2"/>
</radialGradient>
<radialGradient id="paint4_radial_333_3496" cx="0" cy="0" r="1" gradientUnits="userSpaceOnUse" gradientTransform="translate(225.589 88.9843) scale(1195.53 855.662)">
<stop stop-color="white"/>
<stop offset="1" stop-color="#C2C2C2"/>
</radialGradient>
<radialGradient id="paint5_radial_333_3496" cx="0" cy="0" r="1" gradientUnits="userSpaceOnUse" gradientTransform="translate(225.589 88.9844) scale(1195.64 855.741)">
<stop stop-color="white"/>
<stop offset="1" stop-color="#C2C2C2"/>
</radialGradient>
<radialGradient id="paint6_radial_333_3496" cx="0" cy="0" r="1" gradientUnits="userSpaceOnUse" gradientTransform="translate(225.589 88.9844) scale(1195.53 855.662)">
<stop stop-color="white"/>
<stop offset="1" stop-color="#C2C2C2"/>
</radialGradient>
<radialGradient id="paint7_radial_333_3496" cx="0" cy="0" r="1" gradientUnits="userSpaceOnUse" gradientTransform="translate(225.589 88.9846) scale(1195.63 855.74)">
<stop stop-color="white"/>
<stop offset="1" stop-color="#C2C2C2"/>
</radialGradient>
<radialGradient id="paint8_radial_333_3496" cx="0" cy="0" r="1" gradientUnits="userSpaceOnUse" gradientTransform="translate(225.589 88.9844) scale(1195.53 855.662)">
<stop stop-color="white"/>
<stop offset="1" stop-color="#C2C2C2"/>
</radialGradient>
<radialGradient id="paint9_radial_333_3496" cx="0" cy="0" r="1" gradientUnits="userSpaceOnUse" gradientTransform="translate(225.589 88.9844) scale(1195.64 855.741)">
<stop stop-color="white"/>
<stop offset="1" stop-color="#C2C2C2"/>
</radialGradient>
<radialGradient id="paint10_radial_333_3496" cx="0" cy="0" r="1" gradientUnits="userSpaceOnUse" gradientTransform="translate(225.588 88.9845) scale(1195.53 855.662)">
<stop stop-color="white"/>
<stop offset="1" stop-color="#C2C2C2"/>
</radialGradient>
<radialGradient id="paint11_radial_333_3496" cx="0" cy="0" r="1" gradientUnits="userSpaceOnUse" gradientTransform="translate(225.589 88.9845) scale(1195.64 855.741)">
<stop stop-color="white"/>
<stop offset="1" stop-color="#C2C2C2"/>
</radialGradient>
<radialGradient id="paint12_radial_333_3496" cx="0" cy="0" r="1" gradientUnits="userSpaceOnUse" gradientTransform="translate(225.588 88.9844) scale(1195.53 855.662)">
<stop stop-color="white"/>
<stop offset="1" stop-color="#C2C2C2"/>
</radialGradient>
<radialGradient id="paint13_radial_333_3496" cx="0" cy="0" r="1" gradientUnits="userSpaceOnUse" gradientTransform="translate(225.589 88.9845) scale(1195.64 855.741)">
<stop stop-color="white"/>
<stop offset="1" stop-color="#C2C2C2"/>
</radialGradient>
<radialGradient id="paint14_radial_333_3496" cx="0" cy="0" r="1" gradientUnits="userSpaceOnUse" gradientTransform="translate(225.588 88.9844) scale(1195.53 855.662)">
<stop stop-color="white"/>
<stop offset="1" stop-color="#C2C2C2"/>
</radialGradient>
<radialGradient id="paint15_radial_333_3496" cx="0" cy="0" r="1" gradientUnits="userSpaceOnUse" gradientTransform="translate(225.589 88.9844) scale(1195.63 855.741)">
<stop stop-color="white"/>
<stop offset="1" stop-color="#C2C2C2"/>
</radialGradient>
<radialGradient id="paint16_radial_333_3496" cx="0" cy="0" r="1" gradientUnits="userSpaceOnUse" gradientTransform="translate(225.588 88.9844) scale(1195.53 855.662)">
<stop stop-color="white"/>
<stop offset="1" stop-color="#C2C2C2"/>
</radialGradient>
<radialGradient id="paint17_radial_333_3496" cx="0" cy="0" r="1" gradientUnits="userSpaceOnUse" gradientTransform="translate(225.589 88.9844) scale(1195.53 855.662)">
<stop stop-color="white"/>
<stop offset="1" stop-color="#C2C2C2"/>
</radialGradient>
<radialGradient id="paint18_radial_333_3496" cx="0" cy="0" r="1" gradientUnits="userSpaceOnUse" gradientTransform="translate(225.589 88.9844) scale(1195.53 855.662)">
<stop stop-color="white"/>
<stop offset="1" stop-color="#C2C2C2"/>
</radialGradient>
<radialGradient id="paint19_radial_333_3496" cx="0" cy="0" r="1" gradientUnits="userSpaceOnUse" gradientTransform="translate(225.589 88.9844) scale(1195.53 855.662)">
<stop stop-color="white"/>
<stop offset="1" stop-color="#C2C2C2"/>
</radialGradient>
<radialGradient id="paint20_radial_333_3496" cx="0" cy="0" r="1" gradientUnits="userSpaceOnUse" gradientTransform="translate(225.589 88.9845) scale(1195.53 855.662)">
<stop stop-color="white"/>
<stop offset="1" stop-color="#C2C2C2"/>
</radialGradient>
<radialGradient id="paint21_radial_333_3496" cx="0" cy="0" r="1" gradientUnits="userSpaceOnUse" gradientTransform="translate(225.589 88.8273) scale(1195.63 855.741)">
<stop stop-color="white"/>
<stop offset="1" stop-color="#C2C2C2"/>
</radialGradient>
<radialGradient id="paint22_radial_333_3496" cx="0" cy="0" r="1" gradientUnits="userSpaceOnUse" gradientTransform="translate(225.589 88.9844) scale(1195.53 855.662)">
<stop stop-color="white"/>
<stop offset="1" stop-color="#C2C2C2"/>
</radialGradient>
<radialGradient id="paint23_radial_333_3496" cx="0" cy="0" r="1" gradientUnits="userSpaceOnUse" gradientTransform="translate(225.589 88.9844) scale(1195.53 855.662)">
<stop stop-color="white"/>
<stop offset="1" stop-color="#C2C2C2"/>
</radialGradient>
<radialGradient id="paint24_radial_333_3496" cx="0" cy="0" r="1" gradientUnits="userSpaceOnUse" gradientTransform="translate(225.589 88.9845) scale(1195.53 855.662)">
<stop stop-color="white"/>
<stop offset="1" stop-color="#C2C2C2"/>
</radialGradient>
<radialGradient id="paint25_radial_333_3496" cx="0" cy="0" r="1" gradientUnits="userSpaceOnUse" gradientTransform="translate(225.588 88.9844) scale(1195.53 855.662)">
<stop stop-color="white"/>
<stop offset="1" stop-color="#C2C2C2"/>
</radialGradient>
<radialGradient id="paint26_radial_333_3496" cx="0" cy="0" r="1" gradientUnits="userSpaceOnUse" gradientTransform="translate(225.589 88.9844) scale(1195.53 855.662)">
<stop stop-color="white"/>
<stop offset="1" stop-color="#C2C2C2"/>
</radialGradient>
<radialGradient id="paint27_radial_333_3496" cx="0" cy="0" r="1" gradientUnits="userSpaceOnUse" gradientTransform="translate(225.589 88.9844) scale(1195.53 855.662)">
<stop stop-color="white"/>
<stop offset="1" stop-color="#C2C2C2"/>
</radialGradient>
<radialGradient id="paint28_radial_333_3496" cx="0" cy="0" r="1" gradientUnits="userSpaceOnUse" gradientTransform="translate(225.589 88.9845) scale(1195.53 855.662)">
<stop stop-color="white"/>
<stop offset="1" stop-color="#C2C2C2"/>
</radialGradient>
<radialGradient id="paint29_radial_333_3496" cx="0" cy="0" r="1" gradientUnits="userSpaceOnUse" gradientTransform="translate(225.589 88.9844) scale(1195.53 855.662)">
<stop stop-color="white"/>
<stop offset="1" stop-color="#C2C2C2"/>
</radialGradient>
<radialGradient id="paint30_radial_333_3496" cx="0" cy="0" r="1" gradientUnits="userSpaceOnUse" gradientTransform="translate(225.589 88.9844) scale(1195.53 855.662)">
<stop stop-color="white"/>
<stop offset="1" stop-color="#C2C2C2"/>
</radialGradient>
<radialGradient id="paint31_radial_333_3496" cx="0" cy="0" r="1" gradientUnits="userSpaceOnUse" gradientTransform="translate(225.589 88.9844) scale(1195.53 855.662)">
<stop stop-color="white"/>
<stop offset="1" stop-color="#C2C2C2"/>
</radialGradient>
<radialGradient id="paint32_radial_333_3496" cx="0" cy="0" r="1" gradientUnits="userSpaceOnUse" gradientTransform="translate(225.589 88.9845) scale(1195.53 855.662)">
<stop stop-color="white"/>
<stop offset="1" stop-color="#C2C2C2"/>
</radialGradient>
<radialGradient id="paint33_radial_333_3496" cx="0" cy="0" r="1" gradientUnits="userSpaceOnUse" gradientTransform="translate(225.589 88.9844) scale(1195.53 855.662)">
<stop stop-color="white"/>
<stop offset="1" stop-color="#C2C2C2"/>
</radialGradient>
<radialGradient id="paint34_radial_333_3496" cx="0" cy="0" r="1" gradientUnits="userSpaceOnUse" gradientTransform="translate(225.589 88.9844) scale(1195.53 855.662)">
<stop stop-color="white"/>
<stop offset="1" stop-color="#C2C2C2"/>
</radialGradient>
<radialGradient id="paint35_radial_333_3496" cx="0" cy="0" r="1" gradientUnits="userSpaceOnUse" gradientTransform="translate(225.589 88.9844) scale(1195.53 855.662)">
<stop stop-color="white"/>
<stop offset="1" stop-color="#C2C2C2"/>
</radialGradient>
<radialGradient id="paint36_radial_333_3496" cx="0" cy="0" r="1" gradientUnits="userSpaceOnUse" gradientTransform="translate(225.589 88.9844) scale(1195.53 855.662)">
<stop stop-color="white"/>
<stop offset="1" stop-color="#C2C2C2"/>
</radialGradient>
<radialGradient id="paint37_radial_333_3496" cx="0" cy="0" r="1" gradientUnits="userSpaceOnUse" gradientTransform="translate(225.589 88.9844) scale(1195.53 855.662)">
<stop stop-color="white"/>
<stop offset="1" stop-color="#C2C2C2"/>
</radialGradient>
<radialGradient id="paint38_radial_333_3496" cx="0" cy="0" r="1" gradientUnits="userSpaceOnUse" gradientTransform="translate(225.589 88.9844) scale(1195.53 855.662)">
<stop stop-color="white"/>
<stop offset="1" stop-color="#C2C2C2"/>
</radialGradient>
<radialGradient id="paint39_radial_333_3496" cx="0" cy="0" r="1" gradientUnits="userSpaceOnUse" gradientTransform="translate(225.589 88.9844) scale(1195.53 855.662)">
<stop stop-color="white"/>
<stop offset="1" stop-color="#C2C2C2"/>
</radialGradient>
<radialGradient id="paint40_radial_333_3496" cx="0" cy="0" r="1" gradientUnits="userSpaceOnUse" gradientTransform="translate(225.589 88.9844) scale(1195.53 855.662)">
<stop stop-color="white"/>
<stop offset="1" stop-color="#C2C2C2"/>
</radialGradient>
<radialGradient id="paint41_radial_333_3496" cx="0" cy="0" r="1" gradientUnits="userSpaceOnUse" gradientTransform="translate(225.588 88.9844) scale(1195.53 855.662)">
<stop stop-color="white"/>
<stop offset="1" stop-color="#C2C2C2"/>
</radialGradient>
<radialGradient id="paint42_radial_333_3496" cx="0" cy="0" r="1" gradientUnits="userSpaceOnUse" gradientTransform="translate(225.589 88.9843) scale(1195.53 855.662)">
<stop stop-color="white"/>
<stop offset="1" stop-color="#C2C2C2"/>
</radialGradient>
<radialGradient id="paint43_radial_333_3496" cx="0" cy="0" r="1" gradientUnits="userSpaceOnUse" gradientTransform="translate(225.589 88.9845) scale(1195.53 855.662)">
<stop stop-color="white"/>
<stop offset="1" stop-color="#C2C2C2"/>
</radialGradient>
<radialGradient id="paint44_radial_333_3496" cx="0" cy="0" r="1" gradientUnits="userSpaceOnUse" gradientTransform="translate(225.589 88.9844) scale(1195.53 855.662)">
<stop stop-color="white"/>
<stop offset="1" stop-color="#C2C2C2"/>
</radialGradient>
<radialGradient id="paint45_radial_333_3496" cx="0" cy="0" r="1" gradientUnits="userSpaceOnUse" gradientTransform="translate(225.589 88.9844) scale(1195.53 855.662)">
<stop stop-color="white"/>
<stop offset="1" stop-color="#C2C2C2"/>
</radialGradient>
<radialGradient id="paint46_radial_333_3496" cx="0" cy="0" r="1" gradientUnits="userSpaceOnUse" gradientTransform="translate(225.589 88.9844) scale(1195.53 855.662)">
<stop stop-color="white"/>
<stop offset="1" stop-color="#C2C2C2"/>
</radialGradient>
<radialGradient id="paint47_radial_333_3496" cx="0" cy="0" r="1" gradientUnits="userSpaceOnUse" gradientTransform="translate(225.589 88.9844) scale(1195.53 855.662)">
<stop stop-color="white"/>
<stop offset="1" stop-color="#C2C2C2"/>
</radialGradient>
<radialGradient id="paint48_radial_333_3496" cx="0" cy="0" r="1" gradientUnits="userSpaceOnUse" gradientTransform="translate(225.588 88.9845) scale(1195.53 855.662)">
<stop stop-color="white"/>
<stop offset="1" stop-color="#C2C2C2"/>
</radialGradient>
<radialGradient id="paint49_radial_333_3496" cx="0" cy="0" r="1" gradientUnits="userSpaceOnUse" gradientTransform="translate(225.589 88.9844) scale(1195.53 855.662)">
<stop stop-color="white"/>
<stop offset="1" stop-color="#C2C2C2"/>
</radialGradient>
<radialGradient id="paint50_radial_333_3496" cx="0" cy="0" r="1" gradientUnits="userSpaceOnUse" gradientTransform="translate(225.589 88.9844) scale(1195.53 855.662)">
<stop stop-color="white"/>
<stop offset="1" stop-color="#C2C2C2"/>
</radialGradient>
<radialGradient id="paint51_radial_333_3496" cx="0" cy="0" r="1" gradientUnits="userSpaceOnUse" gradientTransform="translate(225.589 88.9844) scale(1195.53 855.662)">
<stop stop-color="white"/>
<stop offset="1" stop-color="#C2C2C2"/>
</radialGradient>
<radialGradient id="paint52_radial_333_3496" cx="0" cy="0" r="1" gradientUnits="userSpaceOnUse" gradientTransform="translate(225.589 88.9844) scale(1195.53 855.662)">
<stop stop-color="white"/>
<stop offset="1" stop-color="#C2C2C2"/>
</radialGradient>
<radialGradient id="paint53_radial_333_3496" cx="0" cy="0" r="1" gradientUnits="userSpaceOnUse" gradientTransform="translate(225.589 88.9844) scale(1195.53 855.662)">
<stop stop-color="white"/>
<stop offset="1" stop-color="#C2C2C2"/>
</radialGradient>
<radialGradient id="paint54_radial_333_3496" cx="0" cy="0" r="1" gradientUnits="userSpaceOnUse" gradientTransform="translate(225.589 88.9844) scale(1195.53 855.662)">
<stop stop-color="white"/>
<stop offset="1" stop-color="#C2C2C2"/>
</radialGradient>
<radialGradient id="paint55_radial_333_3496" cx="0" cy="0" r="1" gradientUnits="userSpaceOnUse" gradientTransform="translate(225.589 88.9844) scale(1195.53 855.662)">
<stop stop-color="white"/>
<stop offset="1" stop-color="#C2C2C2"/>
</radialGradient>
<radialGradient id="paint56_radial_333_3496" cx="0" cy="0" r="1" gradientUnits="userSpaceOnUse" gradientTransform="translate(225.589 88.9844) scale(1195.53 855.662)">
<stop stop-color="white"/>
<stop offset="1" stop-color="#C2C2C2"/>
</radialGradient>
<radialGradient id="paint57_radial_333_3496" cx="0" cy="0" r="1" gradientUnits="userSpaceOnUse" gradientTransform="translate(225.589 88.9844) scale(1195.53 855.662)">
<stop stop-color="white"/>
<stop offset="1" stop-color="#C2C2C2"/>
</radialGradient>
<radialGradient id="paint58_radial_333_3496" cx="0" cy="0" r="1" gradientUnits="userSpaceOnUse" gradientTransform="translate(225.589 88.9844) scale(1195.53 855.662)">
<stop stop-color="white"/>
<stop offset="1" stop-color="#C2C2C2"/>
</radialGradient>
<radialGradient id="paint59_radial_333_3496" cx="0" cy="0" r="1" gradientUnits="userSpaceOnUse" gradientTransform="translate(225.589 88.9844) scale(1195.53 855.662)">
<stop stop-color="white"/>
<stop offset="1" stop-color="#C2C2C2"/>
</radialGradient>
<radialGradient id="paint60_radial_333_3496" cx="0" cy="0" r="1" gradientUnits="userSpaceOnUse" gradientTransform="translate(225.589 88.9844) scale(1195.53 855.662)">
<stop stop-color="white"/>
<stop offset="1" stop-color="#C2C2C2"/>
</radialGradient>
<radialGradient id="paint61_radial_333_3496" cx="0" cy="0" r="1" gradientUnits="userSpaceOnUse" gradientTransform="translate(225.588 88.9844) scale(1195.53 855.662)">
<stop stop-color="white"/>
<stop offset="1" stop-color="#C2C2C2"/>
</radialGradient>
</defs>
</svg>
