<svg width="711" height="750" viewBox="0 0 711 750" fill="none" xmlns="http://www.w3.org/2000/svg">
<g filter="url(#filter0_d_133_1801)">
<path d="M292.215 148.122C325.819 134.839 365.373 133.791 403.877 141.83C442.557 149.696 480.361 166.125 499.788 195.313C519.39 224.326 520.791 266.273 527.091 304.375C533.742 342.476 545.118 377.257 544.243 413.437C543.193 449.79 529.542 487.892 503.289 511.662C476.861 535.257 437.656 544.346 402.477 541.374C367.298 538.054 335.97 522.498 308.492 507.992C281.189 493.31 257.736 479.678 234.808 462.374C211.706 444.897 189.128 424.098 171.276 395.784C153.249 367.644 139.773 332.164 146.073 300.704C152.199 269.069 177.927 241.28 204.355 214.538C231.133 187.797 258.786 161.58 292.215 148.122Z" fill="#011E2D" shape-rendering="crispEdges"/>
<path d="M312.986 249.994C355.433 225.522 409.709 240.045 434.216 282.433C444.628 300.442 447.989 320.583 445.159 339.671C463.127 346.766 478.913 359.744 489.325 377.753C513.831 420.141 499.288 474.343 456.841 498.816C414.394 523.289 360.118 508.766 335.611 466.377C325.2 448.369 321.837 428.228 324.667 409.141C306.699 402.045 290.914 389.066 280.502 371.058C255.996 328.669 270.539 274.467 312.986 249.994Z" fill="#1F4A5D" shape-rendering="crispEdges"/>
<path d="M498.744 253.241C498.744 316.28 447.571 367.382 384.445 367.382C321.32 367.382 270.147 316.28 270.147 253.241C270.147 190.203 321.32 139.1 384.445 139.1C447.571 139.1 498.744 190.203 498.744 253.241Z" fill="#0A2F40" shape-rendering="crispEdges"/>
<path d="M459.472 281.776C495.543 344.168 474.137 423.948 411.659 459.97C349.181 495.992 269.291 474.615 233.219 412.224C197.147 349.832 218.554 270.051 281.032 234.03C343.51 198.008 423.4 219.385 459.472 281.776Z" fill="url(#paint0_linear_133_1801)" shape-rendering="crispEdges"/>
<path d="M212.387 451.499C191.164 488.599 182.069 521.157 193.438 562.043C219.123 596.756 251.585 566.035 266.059 552.337L266.204 552.2C280.605 538.571 309.514 492.476 334.422 441.656C370.047 368.97 384.69 370.834 424.622 354.584C486.018 329.598 511.79 303.855 545.141 247.068C574.313 197.397 580.766 118.352 545.141 116.081C509.516 113.809 494.356 159.996 481.47 180.439C468.585 200.882 437.895 281.792 417.8 306.883C393.545 337.169 375.353 341.712 315.473 361.398C266.715 377.427 233.61 414.399 212.387 451.499Z" fill="#103749" fill-opacity="0.58" shape-rendering="crispEdges"/>
</g>
<defs>
<filter id="filter0_d_133_1801" x="0.899994" y="0.399994" width="712.2" height="749.2" filterUnits="userSpaceOnUse" color-interpolation-filters="sRGB">
<feFlood flood-opacity="0" result="BackgroundImageFix"/>
<feColorMatrix in="SourceAlpha" type="matrix" values="0 0 0 0 0 0 0 0 0 0 0 0 0 0 0 0 0 0 127 0" result="hardAlpha"/>
<feOffset dy="28"/>
<feGaussianBlur stdDeviation="71.8"/>
<feComposite in2="hardAlpha" operator="out"/>
<feColorMatrix type="matrix" values="0 0 0 0 0.0752358 0 0 0 0 0.325409 0 0 0 0 0.447115 0 0 0 0.2 0"/>
<feBlend mode="normal" in2="BackgroundImageFix" result="effect1_dropShadow_133_1801"/>
<feBlend mode="normal" in="SourceGraphic" in2="effect1_dropShadow_133_1801" result="shape"/>
</filter>
<linearGradient id="paint0_linear_133_1801" x1="357" y1="116" x2="357" y2="578" gradientUnits="userSpaceOnUse">
<stop stop-color="#F0FBFF"/>
<stop offset="1" stop-color="#7CA2B1"/>
</linearGradient>
</defs>
</svg>
