<svg width="179" height="59" viewBox="0 0 179 59" fill="none" xmlns="http://www.w3.org/2000/svg">
<g clip-path="url(#clip0_137_126)">
<path d="M0.5 5.45627C1.51831 7.21886 2.41256 9.04811 3.26979 10.8903C3.73266 11.929 4.22885 12.8899 4.96389 13.7268C6.29879 15.3061 8.17248 16.4058 10.2017 16.7613C10.4813 16.8187 10.9126 16.8613 11.1996 16.8854C11.5458 16.8965 11.9198 16.9057 12.2679 16.8983C13.6269 16.8817 14.9859 16.878 16.3449 16.9039C19.4183 16.9428 22.4584 18.4184 24.3247 20.8642C25.928 22.9286 26.6927 25.7095 26.0891 28.2552H25.9706C25.6707 27.0703 25.28 26.0094 24.6746 24.9874C23.0435 22.1676 19.9811 20.2291 16.7151 20.1754C15.0211 20.1847 13.3214 20.2162 11.6273 20.1625C10.2276 20.1162 8.82419 19.7774 7.55038 19.2034C4.33809 17.7 2.22001 14.9265 1.58866 11.455C1.15542 9.47025 0.757354 7.47622 0.5 5.45627Z" fill="white"/>
<path d="M52.6354 0C53.0798 1.5182 53.426 3.04937 53.7445 4.59349C54.0074 5.79324 54.2166 7.02632 54.1814 8.26124C54.1074 10.5145 53.5334 12.9399 51.8208 14.5303C51.095 15.2154 50.2119 15.6949 49.2787 16.0152C48.6381 16.2429 48.0105 16.367 47.3588 16.4892C46.409 16.6632 45.4388 16.8391 44.4871 16.9965C44.0206 17.0742 43.0874 17.2131 42.6357 17.3242C39.8251 18.0111 37.5145 20.0069 36.2814 22.6601C35.6797 23.9543 35.3816 25.291 35.2594 26.7389L35.1428 26.7592C33.782 23.658 34.6966 19.7163 36.9831 17.2168C38.3199 15.7004 40.1454 14.5988 42.1061 14.0971C42.6875 13.9415 43.3429 13.8434 43.9335 13.736C44.7001 13.6027 45.4666 13.4768 46.2368 13.3565C47.4439 13.1676 48.8473 13.0306 49.8342 12.253C50.8377 11.4735 51.2968 10.2719 51.6875 9.05367C52.0541 7.84466 52.2078 6.56345 52.2281 5.29705C52.3077 3.52704 52.4096 1.76074 52.6373 0L52.6354 0Z" fill="white"/>
<path d="M28.5664 28.32C25.904 31.6545 26.8927 36.7961 30.8752 38.4476C31.5158 38.6901 33.7875 39.5029 34.443 39.7491C34.6948 39.8491 34.9577 39.9584 35.2039 40.0713C35.4187 40.1842 35.7519 40.3453 35.9537 40.4786C36.4388 40.7637 36.9202 41.1359 37.3331 41.5154C38.2922 42.4097 39.0401 43.5409 39.4975 44.7703C40.9101 48.5473 39.5474 52.602 36.0297 54.6238C35.4705 54.9312 34.9058 55.1904 34.3096 55.3774C33.9856 55.4885 33.4339 55.631 33.1062 55.7328C31.7917 56.1087 30.3401 56.5345 29.0256 56.8863C27.2056 57.3844 25.38 57.8639 23.5341 58.2971L23.4934 58.1916C25.9614 56.7845 28.4683 55.4848 30.9918 54.1924C31.4251 53.9777 32.4693 53.4463 32.884 53.2408C33.4246 52.9816 33.9616 52.6557 34.4022 52.2651C34.9447 51.7652 35.3853 51.1838 35.6908 50.5191C36.2852 49.2527 36.5166 47.7938 36.2833 46.4107C36.0741 45.1813 35.4076 44.0445 34.4504 43.2466C34.3263 43.154 34.1412 42.9948 34.0097 42.917C33.8301 42.7911 33.6005 42.6578 33.408 42.5541C33.3099 42.4949 33.0562 42.3782 32.9525 42.3245C32.4471 42.069 30.1938 40.96 29.7402 40.7008C28.5571 40.0232 27.5407 39.0382 26.839 37.8699C25.4985 35.6389 25.3374 32.7265 26.5742 30.4233C27.0297 29.5513 27.6721 28.7885 28.4386 28.1886L28.5682 28.3182L28.5664 28.32Z" fill="white"/>
<path d="M34.3781 30.1252C34.4818 32.3062 35.8834 34.3336 37.9385 35.0538C39.216 35.5111 40.475 35.3982 41.7266 34.8539L43.9299 34.0318L44.0706 33.9818C44.2742 33.9281 44.452 33.8522 44.6704 33.817C45.6739 33.5837 46.7848 33.8207 47.5402 34.5502C48.0216 34.9983 48.3826 35.6389 48.6289 36.2202C48.9473 36.9405 49.1491 37.6385 49.4861 38.2439C49.7583 38.7216 50.0175 38.9474 50.4952 39.0752C52.3151 39.4566 54.0352 40.2472 55.6163 41.2118C57.8621 42.5634 59.7358 44.3982 61.0818 46.6181C61.4299 47.2235 61.7576 47.8586 62.0205 48.501L61.9261 48.5621C60.8726 47.379 59.7006 46.37 58.4602 45.5202C58.2824 45.4072 57.914 45.1758 57.7474 45.0684C57.6085 44.9888 57.1678 44.7388 57.0197 44.6537C56.7272 44.5093 56.318 44.2908 56.0255 44.1649L55.5237 43.939C55.3386 43.8649 54.9331 43.7113 54.7572 43.6409C54.6054 43.5928 54.1407 43.4391 53.9796 43.3873C53.3094 43.1984 52.5595 43.0318 51.8671 42.9318C51.3635 42.8503 50.7932 42.7837 50.2841 42.7281C49.9231 42.6856 49.5398 42.63 49.1899 42.5208C47.8346 42.1505 46.7756 41.0211 46.272 39.7954C45.9165 38.9937 45.7313 38.1661 45.5073 37.4218C45.4166 37.1034 45.3092 36.9034 45.2851 36.8257C45.2851 36.8257 45.2888 36.8257 45.2925 36.8238C45.2962 36.8183 45.2999 36.8238 45.3073 36.8257C45.3129 36.8294 45.324 36.8238 45.3296 36.8257C45.3407 36.8349 45.3647 36.822 45.3647 36.8257C45.3666 36.8257 45.3722 36.8201 45.3722 36.8146C45.3666 36.8146 45.361 36.8109 45.3555 36.8072C45.3536 36.7923 45.3129 36.7979 45.2851 36.7886C45.2166 36.7738 45.0741 36.7886 44.9926 36.8053C43.9539 36.996 42.2191 37.4792 41.149 37.594C38.855 37.8255 36.4981 36.7812 35.1743 34.9075C34.18 33.5412 33.7894 31.7489 34.193 30.1104L34.3763 30.1271L34.3781 30.1252Z" fill="white"/>
<path d="M30.1821 18.7245C32.3637 17.722 33.0936 14.6489 31.8122 11.8606C30.5309 9.07223 27.7237 7.62454 25.5421 8.62704C23.3605 9.62954 22.6307 12.7026 23.912 15.4909C25.1933 18.2793 28.0005 19.727 30.1821 18.7245Z" fill="white"/>
<path d="M81.8905 20.8531C81.1055 21.5899 80.1131 21.9584 78.9096 21.9584C77.5192 21.9584 76.4064 21.4844 75.5696 20.5346C74.7327 19.5848 74.3161 18.3184 74.3161 16.7299C74.3161 15.245 74.7327 13.9952 75.564 12.9806C76.3953 11.966 77.5395 11.4587 78.9948 11.4587C80.0094 11.4587 80.9185 11.7568 81.722 12.353C82.5255 12.9492 82.9828 13.736 83.0958 14.7136H82.1367C81.9868 13.9712 81.6239 13.3824 81.0518 12.9455C80.4797 12.5085 79.7835 12.29 78.967 12.29C77.858 12.29 76.9637 12.6955 76.2824 13.5083C75.601 14.3211 75.2604 15.3949 75.2604 16.728C75.2604 18.0611 75.5955 19.1312 76.2676 19.9347C76.9397 20.7383 77.8302 21.14 78.9374 21.14C79.9057 21.14 80.6759 20.842 81.248 20.2458C81.822 19.6496 82.1645 18.8627 82.2774 17.8852H83.2217C83.118 19.1256 82.6737 20.1143 81.8905 20.8512V20.8531Z" fill="white"/>
<path d="M85.3934 15.8578C85.91 14.8247 86.7469 14.3081 87.9022 14.3081C88.739 14.3081 89.3704 14.5359 89.7981 14.9913C90.2258 15.4468 90.4387 16.0966 90.4387 16.9428V21.7344H89.5518V17.0557C89.5518 15.7208 88.9316 15.0543 87.6911 15.0543C86.9116 15.0543 86.3358 15.319 85.9655 15.8504C85.5952 16.3818 85.4083 17.0687 85.4083 17.9148V21.7344H84.5344V11.7013H85.4083C85.4083 14.1063 85.4027 15.4912 85.3934 15.8578Z" fill="white"/>
<path d="M98.4555 21.6918C98.2389 21.7677 98.0038 21.8047 97.7501 21.8047C97.365 21.8047 97.1114 21.6881 96.9892 21.4529C96.867 21.2178 96.8059 20.8938 96.8059 20.4809C96.1949 21.4492 95.284 21.9325 94.0713 21.9325C93.3288 21.9325 92.7493 21.7547 92.3309 21.3974C91.9125 21.0401 91.7032 20.542 91.7032 19.9033C91.7032 18.598 92.6012 17.85 94.3953 17.663C94.4897 17.6537 94.6212 17.6426 94.7896 17.6278C94.9581 17.613 95.084 17.6019 95.1636 17.5926C95.2433 17.5834 95.3469 17.5723 95.4728 17.5575C95.5987 17.5426 95.6932 17.5315 95.7543 17.5223C95.8153 17.513 95.8913 17.4982 95.9801 17.4797C96.069 17.4612 96.1394 17.4427 96.1912 17.4242C96.243 17.4056 96.2967 17.3834 96.3541 17.3612C96.4097 17.3371 96.4615 17.3112 96.5097 17.2834C96.6781 17.1705 96.7633 16.9409 96.7633 16.5928C96.7633 16.0189 96.6041 15.6153 96.2838 15.3801C95.9635 15.145 95.4951 15.0284 94.8748 15.0284C94.2546 15.0284 93.7973 15.1672 93.4732 15.4449C93.1492 15.7227 92.9585 16.1522 92.903 16.7336H92.0569C92.0939 15.9541 92.3661 15.3524 92.8734 14.9302C93.3807 14.5081 94.0805 14.297 94.9729 14.297C95.8005 14.297 96.4504 14.4748 96.9244 14.8321C97.3984 15.1894 97.6353 15.706 97.6353 16.3818V20.3273C97.6353 20.5143 97.6409 20.6494 97.6502 20.729C97.6594 20.8086 97.7001 20.8845 97.7705 20.9549C97.8409 21.0253 97.9556 21.0604 98.1149 21.0604C98.2371 21.0604 98.35 21.0456 98.4537 21.0178V21.6936L98.4555 21.6918ZM96.3486 18.0222C96.156 18.0833 95.9801 18.1277 95.8209 18.1555C95.6617 18.1833 95.3895 18.2203 95.0044 18.2684C94.91 18.2777 94.8396 18.2869 94.7933 18.2962C94.4934 18.3332 94.2453 18.3758 94.0528 18.4221C93.8602 18.4684 93.6399 18.5461 93.3899 18.6554C93.1418 18.7628 92.953 18.9146 92.8271 19.1071C92.6993 19.2997 92.6364 19.5367 92.6364 19.8181C92.6364 20.2402 92.7864 20.5772 93.0881 20.8253C93.3881 21.0734 93.7936 21.1993 94.3009 21.1993C94.9859 21.1993 95.5691 20.9956 96.0486 20.5865C96.5282 20.1773 96.767 19.6404 96.767 18.9738V17.7907C96.6818 17.8852 96.543 17.9629 96.3504 18.024L96.3486 18.0222Z" fill="white"/>
<path d="M103.754 16.6058C103.669 15.5542 103.018 15.0283 101.796 15.0283C101.279 15.0283 100.868 15.1357 100.563 15.3524C100.257 15.569 100.105 15.8597 100.105 16.2262C100.105 16.404 100.139 16.5595 100.203 16.691C100.268 16.8224 100.344 16.928 100.429 17.0076C100.514 17.0872 100.663 17.1649 100.874 17.2408C101.085 17.3168 101.268 17.3742 101.423 17.4167C101.579 17.4593 101.829 17.5167 102.177 17.5926C102.486 17.6685 102.736 17.7296 102.923 17.7759C103.112 17.8222 103.343 17.9055 103.621 18.0222C103.899 18.1388 104.117 18.2666 104.277 18.4036C104.436 18.5406 104.575 18.722 104.693 18.9535C104.812 19.1849 104.869 19.4441 104.869 19.7348C104.869 20.4013 104.604 20.9401 104.073 21.3474C103.542 21.7566 102.849 21.9602 101.994 21.9602C101.064 21.9602 100.34 21.7344 99.8238 21.2845C99.3072 20.8327 99.0388 20.1939 99.0203 19.3682H99.8793C99.8793 19.9699 100.068 20.4291 100.442 20.7494C100.818 21.0697 101.344 21.2289 102.02 21.2289C102.612 21.2289 103.088 21.0993 103.451 20.842C103.812 20.5827 103.993 20.2421 103.993 19.8199C103.993 19.5941 103.934 19.3978 103.817 19.2275C103.701 19.0571 103.543 18.9238 103.345 18.8257C103.147 18.7276 102.953 18.648 102.76 18.5869C102.568 18.5258 102.364 18.4721 102.147 18.4239C102.083 18.4147 102.034 18.4054 102.007 18.3962C101.94 18.3777 101.79 18.3425 101.555 18.2906C101.32 18.2388 101.155 18.2018 101.062 18.1777C100.968 18.1536 100.818 18.1092 100.611 18.0444C100.403 17.9796 100.253 17.9185 100.159 17.8611C100.064 17.8037 99.946 17.7241 99.7997 17.6223C99.6535 17.5204 99.5461 17.4093 99.4757 17.2908C99.4054 17.1742 99.3443 17.0353 99.2924 16.8743C99.2406 16.715 99.2147 16.5354 99.2147 16.3392C99.2147 15.7097 99.4517 15.2116 99.9256 14.8451C100.4 14.4785 101.051 14.2952 101.877 14.2952C102.703 14.2952 103.366 14.4933 103.864 14.8876C104.362 15.282 104.61 15.856 104.61 16.6076H103.751L103.754 16.6058Z" fill="white"/>
<path d="M107.094 13.1102H106.208V11.6587H107.094V13.1102ZM107.094 21.7344H106.208V14.4914H107.094V21.7344Z" fill="white"/>
<path d="M109.631 15.8578C109.931 15.3227 110.281 14.9284 110.681 14.6747C111.081 14.4211 111.584 14.2952 112.195 14.2952C112.947 14.2952 113.552 14.5025 114.013 14.9154C114.474 15.3283 114.704 15.9578 114.704 16.8039V21.7362H113.817V17.0853C113.817 15.7412 113.202 15.0709 111.971 15.0709C111.277 15.0709 110.721 15.3042 110.309 15.7689C109.896 16.2337 109.688 16.9168 109.688 17.8185V21.7362H108.802V14.4933H109.633V15.8597L109.631 15.8578Z" fill="white"/>
<path d="M122.512 21.34C122.512 23.5007 121.432 24.5801 119.27 24.5801C118.387 24.5801 117.687 24.3894 117.17 24.0098C116.654 23.6284 116.372 23.0915 116.324 22.3972H117.211C117.352 23.3933 118.051 23.8913 119.31 23.8913C120.166 23.8913 120.773 23.671 121.136 23.2285C121.499 22.786 121.679 22.1343 121.679 21.2696V20.0569C121.19 21.1178 120.355 21.6492 119.17 21.6492C118.211 21.6492 117.448 21.3233 116.88 20.6698C116.311 20.0162 116.028 19.146 116.028 18.0555C116.028 16.965 116.322 16.0078 116.909 15.3209C117.496 14.6358 118.274 14.2915 119.242 14.2915C120.388 14.2915 121.21 14.8136 121.708 15.856V14.4896H122.512V21.3382V21.34ZM117.557 15.8449C117.129 16.3707 116.917 17.0853 116.917 17.987C116.917 18.8887 117.128 19.5756 117.55 20.1014C117.972 20.6272 118.54 20.8901 119.255 20.8901C119.97 20.8901 120.584 20.6198 121.016 20.0792C121.447 19.5385 121.664 18.8091 121.664 17.8889C121.664 17.0242 121.447 16.3373 121.016 15.8245C120.584 15.3116 120.005 15.0561 119.283 15.0561C118.561 15.0561 117.985 15.319 117.557 15.8449Z" fill="white"/>
<path d="M82.6718 34.0651H81.7275V29.218H75.7251V34.0651H74.766V24.032H75.7251V28.3997H81.7275V24.032H82.6718V34.0651Z" fill="white"/>
<path d="M90.1054 27.6535C90.7201 28.3478 91.0293 29.2884 91.0293 30.4714C91.0293 31.6545 90.7238 32.5729 90.1128 33.2542C89.5019 33.9355 88.6705 34.2762 87.6189 34.2762C86.5673 34.2762 85.7286 33.9318 85.1028 33.2412C84.4788 32.5506 84.1659 31.6175 84.1659 30.4437C84.1659 29.2698 84.4788 28.3497 85.1028 27.6535C85.7267 26.9592 86.5654 26.6111 87.6189 26.6111C88.6724 26.6111 89.4907 26.9592 90.1054 27.6535ZM85.7582 28.196C85.2972 28.7551 85.0676 29.505 85.0676 30.4437C85.0676 31.3824 85.2953 32.1581 85.7508 32.7117C86.2062 33.2653 86.8339 33.543 87.6319 33.543C88.4298 33.543 89.0131 33.2653 89.463 32.7117C89.9147 32.1581 90.1388 31.4064 90.1388 30.4566C90.1388 29.5068 89.9092 28.7533 89.4482 28.1941C88.9871 27.635 88.3725 27.3554 87.6022 27.3554C86.832 27.3554 86.2173 27.635 85.7563 28.1941L85.7582 28.196Z" fill="white"/>
<path d="M96.0745 27.6109C96.0375 27.6109 95.9931 27.6091 95.9412 27.6035C95.8894 27.598 95.8542 27.5961 95.8357 27.5961C95.2914 27.5961 94.8044 27.7535 94.3767 28.0682C93.9491 28.383 93.6658 28.7996 93.5251 29.3161C93.4121 29.7568 93.3566 30.3548 93.3566 31.1065V34.0651H92.4827V26.8222H93.314V28.5552C93.6232 27.8886 93.9805 27.4165 94.3842 27.1388C94.7878 26.8611 95.3525 26.7185 96.0745 26.7093V27.6109Z" fill="white"/>
<path d="M97.7094 25.441H96.8226V23.9895H97.7094V25.441ZM97.7094 34.0651H96.8226V26.8222H97.7094V34.0651Z" fill="white"/>
<path d="M104.656 27.4424L99.8645 33.319H104.852V34.0651H98.7925V33.3468L103.499 27.5683H99.1017V26.8222H104.654V27.4424H104.656Z" fill="white"/>
<path d="M111.512 27.6535C112.127 28.3478 112.436 29.2884 112.436 30.4714C112.436 31.6545 112.13 32.5729 111.519 33.2542C110.908 33.9355 110.077 34.2762 109.026 34.2762C107.974 34.2762 107.135 33.9318 106.509 33.2412C105.885 32.5506 105.573 31.6175 105.573 30.4437C105.573 29.2698 105.885 28.3497 106.509 27.6535C107.133 26.9592 107.972 26.6111 109.026 26.6111C110.079 26.6111 110.897 26.9592 111.512 27.6535ZM107.165 28.196C106.704 28.7551 106.474 29.505 106.474 30.4437C106.474 31.3824 106.702 32.1581 107.157 32.7117C107.613 33.2653 108.241 33.543 109.039 33.543C109.836 33.543 110.42 33.2653 110.87 32.7117C111.321 32.1581 111.545 31.4064 111.545 30.4566C111.545 29.5068 111.316 28.7533 110.855 28.1941C110.394 27.635 109.779 27.3554 109.009 27.3554C108.239 27.3554 107.624 27.635 107.163 28.1941L107.165 28.196Z" fill="white"/>
<path d="M114.606 28.1886C114.906 27.6535 115.256 27.2591 115.656 27.0055C116.056 26.7518 116.559 26.6241 117.17 26.6241C117.922 26.6241 118.527 26.8314 118.988 27.2443C119.449 27.6572 119.679 28.2867 119.679 29.1328V34.0651H118.792V29.4142C118.792 28.0701 118.177 27.3998 116.946 27.3998C116.252 27.3998 115.696 27.6331 115.284 28.0979C114.871 28.5626 114.663 29.2458 114.663 30.1474V34.0651H113.775V26.8222H114.606V28.1886Z" fill="white"/>
<path d="M81.6868 37.1812H78.1635V46.3978H77.2044V37.1812H73.6811V36.3628H81.6849V37.1812H81.6868Z" fill="white"/>
<path d="M86.4562 39.9843C87.0709 40.6786 87.3801 41.6191 87.3801 42.8022C87.3801 43.9853 87.0746 44.9036 86.4636 45.585C85.8526 46.2663 85.0213 46.607 83.9697 46.607C82.918 46.607 82.0793 46.2607 81.4535 45.572C80.8296 44.8814 80.5167 43.9501 80.5167 42.7744C80.5167 41.5987 80.8296 40.6786 81.4535 39.9843C82.0775 39.29 82.9162 38.9419 83.9697 38.9419C85.0232 38.9419 85.8415 39.29 86.4562 39.9843ZM82.109 40.5267C81.6479 41.0859 81.4184 41.8357 81.4184 42.7744C81.4184 43.7131 81.6461 44.4889 82.1015 45.0425C82.557 45.5961 83.1847 45.8738 83.9826 45.8738C84.7806 45.8738 85.3638 45.5961 85.8137 45.0425C86.2655 44.4889 86.4895 43.7372 86.4895 42.7874C86.4895 41.8376 86.2599 41.084 85.7989 40.5249C85.3379 39.9658 84.7232 39.6862 83.953 39.6862C83.1828 39.6862 82.5681 39.9658 82.1071 40.5249L82.109 40.5267Z" fill="white"/>
<path d="M94.5675 46.3959H93.751V45.0573C93.2159 46.0904 92.3661 46.607 91.1996 46.607C90.4294 46.607 89.8203 46.383 89.3741 45.9367C88.9279 45.4905 88.7039 44.8351 88.7039 43.9705V39.1511H89.5907V43.5891C89.5907 44.3408 89.7296 44.9018 90.0073 45.2739C90.285 45.6442 90.7571 45.8312 91.4237 45.8312C92.1291 45.8312 92.6827 45.5757 93.0863 45.0629C93.4899 44.55 93.6917 43.9149 93.6917 43.154V39.1511H94.5656V46.3941L94.5675 46.3959Z" fill="white"/>
<path d="M99.9922 39.9417C99.9552 39.9417 99.9108 39.9398 99.8589 39.9343C99.8071 39.9287 99.7719 39.9269 99.7534 39.9269C99.2091 39.9269 98.7221 40.0843 98.2944 40.399C97.8668 40.7137 97.5835 41.1303 97.4428 41.6469C97.3298 42.0875 97.2743 42.6856 97.2743 43.4373V46.3959H96.4004V39.153H97.2317V40.8859C97.5409 40.2194 97.8982 39.7473 98.3019 39.4696C98.7055 39.1918 99.2702 39.0493 99.9922 39.04V39.9417Z" fill="white"/>
<path d="M105.065 41.2673C104.98 40.2157 104.328 39.6899 103.106 39.6899C102.59 39.6899 102.179 39.7973 101.873 40.0139C101.568 40.2305 101.416 40.5212 101.416 40.8878C101.416 41.0655 101.449 41.2211 101.514 41.3525C101.579 41.484 101.655 41.5895 101.74 41.6691C101.825 41.7487 101.973 41.8265 102.184 41.9024C102.395 41.9783 102.579 42.0357 102.734 42.0783C102.89 42.1209 103.14 42.1783 103.488 42.2542C103.797 42.3301 104.047 42.3912 104.234 42.4375C104.423 42.4838 104.654 42.5671 104.932 42.6837C105.21 42.8004 105.428 42.9281 105.587 43.0651C105.747 43.2021 105.885 43.3836 106.004 43.615C106.122 43.8464 106.18 44.1056 106.18 44.3963C106.18 45.0628 105.915 45.6016 105.384 46.0089C104.852 46.4181 104.16 46.6218 103.305 46.6218C102.375 46.6218 101.651 46.3959 101.135 45.946C100.618 45.4942 100.35 44.8555 100.331 44.0297H101.19C101.19 44.6315 101.379 45.0906 101.753 45.4109C102.129 45.7312 102.655 45.8905 103.33 45.8905C103.923 45.8905 104.399 45.7609 104.762 45.5035C105.123 45.2443 105.304 44.9036 105.304 44.4815C105.304 44.2556 105.245 44.0594 105.128 43.889C105.012 43.7187 104.854 43.5854 104.656 43.4872C104.458 43.3891 104.264 43.3095 104.071 43.2484C103.878 43.1873 103.675 43.1336 103.458 43.0855C103.393 43.0762 103.345 43.067 103.317 43.0577C103.251 43.0392 103.101 43.004 102.866 42.9522C102.631 42.9003 102.466 42.8633 102.373 42.8392C102.279 42.8152 102.129 42.7707 101.921 42.7059C101.714 42.6411 101.564 42.58 101.47 42.5226C101.375 42.4652 101.257 42.3856 101.111 42.2838C100.964 42.182 100.857 42.0709 100.787 41.9524C100.716 41.8357 100.655 41.6969 100.603 41.5358C100.551 41.3766 100.525 41.197 100.525 41.0007C100.525 40.3712 100.762 39.8732 101.236 39.5066C101.71 39.14 102.362 38.9567 103.188 38.9567C104.014 38.9567 104.676 39.1548 105.174 39.5492C105.673 39.9435 105.921 40.5175 105.921 41.2692H105.062L105.065 41.2673Z" fill="white"/>
<path d="M117.776 46.3533C117.559 46.4292 117.324 46.4663 117.07 46.4663C116.685 46.4663 116.431 46.3496 116.309 46.1145C116.187 45.8793 116.126 45.5553 116.126 45.1425C115.515 46.1108 114.604 46.594 113.391 46.594C112.649 46.594 112.069 46.4163 111.651 46.0589C111.233 45.7016 111.023 45.2036 111.023 44.5648C111.023 43.2595 111.921 42.5115 113.715 42.3245C113.81 42.3153 113.941 42.3042 114.11 42.2893C114.278 42.2745 114.404 42.2634 114.484 42.2542C114.563 42.2449 114.667 42.2338 114.793 42.219C114.919 42.2042 115.013 42.1931 115.074 42.1838C115.135 42.1746 115.211 42.1597 115.3 42.1412C115.389 42.1227 115.459 42.1042 115.511 42.0857C115.563 42.0672 115.617 42.045 115.674 42.0227C115.73 41.9987 115.782 41.9727 115.83 41.945C115.998 41.832 116.083 41.6025 116.083 41.2544C116.083 40.6804 115.924 40.2768 115.604 40.0417C115.284 39.8065 114.815 39.6899 114.195 39.6899C113.575 39.6899 113.117 39.8287 112.793 40.1065C112.469 40.3842 112.279 40.8137 112.223 41.3951H111.377C111.414 40.6156 111.686 40.0139 112.193 39.5918C112.701 39.1696 113.401 38.9586 114.293 38.9586C115.121 38.9586 115.77 39.1363 116.244 39.4936C116.718 39.851 116.955 40.3675 116.955 41.0433V44.9888C116.955 45.1758 116.961 45.3109 116.97 45.3906C116.979 45.4702 117.02 45.5461 117.091 45.6164C117.161 45.6868 117.276 45.722 117.435 45.722C117.557 45.722 117.67 45.7072 117.774 45.6794V46.3552L117.776 46.3533ZM115.669 42.6837C115.476 42.7448 115.3 42.7892 115.141 42.817C114.982 42.8448 114.71 42.8818 114.324 42.93C114.23 42.9392 114.16 42.9485 114.113 42.9577C113.813 42.9948 113.565 43.0373 113.373 43.0836C113.18 43.1299 112.96 43.2077 112.71 43.3169C112.462 43.4243 112.273 43.5761 112.147 43.7687C112.019 43.9612 111.956 44.1982 111.956 44.4796C111.956 44.9018 112.106 45.2387 112.408 45.4868C112.708 45.7349 113.114 45.8608 113.621 45.8608C114.306 45.8608 114.889 45.6572 115.369 45.248C115.848 44.8388 116.087 44.3019 116.087 43.6354V42.4523C116.002 42.5467 115.863 42.6245 115.67 42.6856L115.669 42.6837Z" fill="white"/>
<path d="M119.566 40.5193C119.866 39.9843 120.216 39.5899 120.616 39.3363C121.016 39.0826 121.519 38.9567 122.13 38.9567C122.882 38.9567 123.487 39.1641 123.948 39.577C124.409 39.9898 124.639 40.6193 124.639 41.4654V46.3978H123.752V41.7469C123.752 40.4027 123.137 39.7325 121.906 39.7325C121.212 39.7325 120.656 39.9658 120.244 40.4305C119.831 40.8952 119.623 41.5784 119.623 42.4801V46.3978H118.737V39.1548H119.568V40.5212L119.566 40.5193Z" fill="white"/>
<path d="M132.671 46.3959H131.867V44.9721C131.65 45.5072 131.315 45.9145 130.86 46.1904C130.404 46.4681 129.871 46.607 129.26 46.607C128.255 46.607 127.459 46.2607 126.872 45.572C126.285 44.8814 125.991 43.9501 125.991 42.7744C125.991 41.5988 126.283 40.6786 126.872 39.9843C127.459 39.29 128.246 38.9419 129.232 38.9419C130.491 38.9419 131.351 39.464 131.812 40.5064V36.3628H132.671V46.3959ZM127.549 40.5138C127.103 41.0729 126.879 41.8228 126.879 42.7615C126.879 43.7002 127.103 44.4815 127.549 45.0443C127.996 45.6072 128.594 45.8905 129.345 45.8905C130.097 45.8905 130.725 45.6127 131.171 45.0591C131.617 44.5056 131.841 43.7446 131.841 42.7763C131.841 41.9117 131.63 41.1785 131.208 40.5786C130.786 39.9769 130.16 39.6769 129.334 39.6769C128.592 39.6769 127.998 39.9565 127.551 40.5156L127.549 40.5138Z" fill="white"/>
<path d="M145.383 37.1812H141.859V46.3978H140.902V37.1812H137.379V36.3628H145.383V37.1812Z" fill="white"/>
<path d="M148.553 39.9417C148.516 39.9417 148.471 39.9398 148.419 39.9343C148.367 39.9287 148.332 39.9269 148.314 39.9269C147.769 39.9269 147.282 40.0843 146.855 40.399C146.427 40.7137 146.144 41.1303 146.003 41.6469C145.89 42.0875 145.835 42.6856 145.835 43.4373V46.3959H144.961V39.153H145.792V40.8859C146.101 40.2194 146.459 39.7473 146.862 39.4696C147.266 39.1918 147.83 39.0493 148.553 39.04V39.9417Z" fill="white"/>
<path d="M155.642 46.3533C155.425 46.4292 155.19 46.4663 154.936 46.4663C154.551 46.4663 154.298 46.3496 154.175 46.1145C154.053 45.8793 153.992 45.5553 153.992 45.1425C153.381 46.1108 152.47 46.594 151.257 46.594C150.515 46.594 149.936 46.4163 149.517 46.0589C149.099 45.7016 148.889 45.2036 148.889 44.5648C148.889 43.2595 149.787 42.5115 151.582 42.3245C151.676 42.3153 151.807 42.3042 151.976 42.2893C152.144 42.2745 152.27 42.2634 152.35 42.2542C152.429 42.2449 152.533 42.2338 152.659 42.219C152.787 42.2042 152.879 42.1931 152.94 42.1838C153.002 42.1746 153.077 42.1597 153.166 42.1412C153.255 42.1227 153.326 42.1042 153.377 42.0857C153.429 42.0672 153.483 42.045 153.54 42.0227C153.596 41.9987 153.648 41.9727 153.696 41.945C153.864 41.832 153.95 41.6025 153.95 41.2544C153.95 40.6804 153.79 40.2768 153.47 40.0417C153.15 39.8065 152.681 39.6899 152.061 39.6899C151.441 39.6899 150.983 39.8287 150.659 40.1065C150.335 40.3842 150.145 40.8137 150.089 41.3951H149.243C149.28 40.6156 149.552 40.0139 150.061 39.5918C150.571 39.1696 151.269 38.9586 152.161 38.9586C152.989 38.9586 153.638 39.1363 154.112 39.4936C154.586 39.851 154.823 40.3675 154.823 41.0433V44.9888C154.823 45.1758 154.829 45.3109 154.838 45.3906C154.847 45.4702 154.888 45.5461 154.959 45.6164C155.029 45.6868 155.144 45.722 155.305 45.722C155.427 45.722 155.54 45.7072 155.644 45.6794V46.3552L155.642 46.3533ZM153.535 42.6837C153.342 42.7448 153.166 42.7892 153.007 42.817C152.848 42.8448 152.576 42.8818 152.189 42.93C152.094 42.9392 152.024 42.9485 151.978 42.9577C151.678 42.9948 151.43 43.0373 151.237 43.0836C151.045 43.1299 150.824 43.2077 150.574 43.3169C150.326 43.4243 150.137 43.5761 150.011 43.7687C149.886 43.9612 149.821 44.1982 149.821 44.4796C149.821 44.9018 149.971 45.2387 150.273 45.4868C150.574 45.7349 150.978 45.8608 151.485 45.8608C152.17 45.8608 152.753 45.6572 153.233 45.248C153.713 44.8388 153.951 44.3019 153.951 43.6354V42.4523C153.866 42.5467 153.727 42.6245 153.535 42.6856V42.6837Z" fill="white"/>
<path d="M159.559 46.3959H158.6L155.81 39.153H156.754L158.445 43.5632C158.576 43.9205 158.797 44.5741 159.108 45.522C159.389 44.6203 159.609 43.9446 159.771 43.4928L161.335 39.153H162.222L159.559 46.3959Z" fill="white"/>
<path d="M168.113 45.9386C167.578 46.4033 166.891 46.6366 166.056 46.6366C165.051 46.6366 164.246 46.2941 163.64 45.6072C163.035 44.9203 162.731 44.0057 162.731 42.8596C162.731 41.7135 163.038 40.7767 163.655 40.0491C164.271 39.3214 165.066 38.9567 166.043 38.9567C167.021 38.9567 167.854 39.3177 168.404 40.0417C168.954 40.7656 169.228 41.6617 169.228 42.7337V42.9874H163.633C163.633 43.8242 163.836 44.5204 164.246 45.0795C164.655 45.6387 165.268 45.9182 166.084 45.9182C167.276 45.9182 168.015 45.285 168.297 44.0149H169.156C168.996 44.8333 168.648 45.4739 168.113 45.9386ZM167.649 40.3712C167.236 39.9158 166.69 39.688 166.014 39.688C165.281 39.688 164.725 39.9269 164.344 40.4064C163.962 40.8859 163.725 41.5062 163.633 42.2671H168.339C168.293 41.4599 168.061 40.8267 167.649 40.3712Z" fill="white"/>
<path d="M171.34 46.3959H170.466V36.3628H171.34V46.3959Z" fill="white"/>
<path d="M177.385 41.2673C177.3 40.2157 176.649 39.6899 175.427 39.6899C174.91 39.6899 174.499 39.7973 174.194 40.0139C173.888 40.2305 173.736 40.5212 173.736 40.8878C173.736 41.0655 173.77 41.2211 173.834 41.3525C173.899 41.484 173.975 41.5895 174.06 41.6691C174.145 41.7487 174.293 41.8265 174.505 41.9024C174.716 41.9783 174.899 42.0357 175.054 42.0783C175.21 42.1209 175.462 42.1783 175.808 42.2542C176.117 42.3301 176.367 42.3912 176.554 42.4375C176.741 42.4838 176.974 42.5671 177.252 42.6837C177.53 42.8004 177.748 42.9281 177.908 43.0651C178.067 43.2021 178.206 43.3836 178.324 43.615C178.441 43.8446 178.5 44.1056 178.5 44.3963C178.5 45.0628 178.235 45.6016 177.704 46.0089C177.173 46.4181 176.48 46.6218 175.625 46.6218C174.695 46.6218 173.971 46.3959 173.455 45.946C172.938 45.4942 172.67 44.8555 172.651 44.0297H173.51C173.51 44.6315 173.697 45.0906 174.073 45.4109C174.449 45.7312 174.975 45.8905 175.651 45.8905C176.243 45.8905 176.719 45.7609 177.08 45.5035C177.441 45.2443 177.622 44.9036 177.622 44.4815C177.622 44.2556 177.563 44.0594 177.447 43.889C177.33 43.7205 177.173 43.5854 176.974 43.4872C176.776 43.3891 176.582 43.3095 176.389 43.2484C176.197 43.1873 175.993 43.1336 175.777 43.0855C175.71 43.0762 175.664 43.067 175.636 43.0577C175.569 43.0392 175.419 43.004 175.184 42.9522C174.949 42.9003 174.784 42.8633 174.692 42.8392C174.597 42.8152 174.447 42.7707 174.24 42.7059C174.032 42.6411 173.882 42.58 173.788 42.5226C173.694 42.4652 173.575 42.3856 173.429 42.2838C173.283 42.1801 173.175 42.0709 173.105 41.9524C173.035 41.8357 172.973 41.6969 172.922 41.5358C172.87 41.3766 172.844 41.197 172.844 41.0007C172.844 40.3712 173.081 39.8732 173.555 39.5066C174.029 39.14 174.68 38.9567 175.506 38.9567C176.332 38.9567 176.995 39.1548 177.493 39.5492C177.991 39.9435 178.239 40.5175 178.239 41.2692H177.38L177.385 41.2673Z" fill="white"/>
</g>
<defs>
<clipPath id="clip0_137_126">
<rect width="178" height="58.299" fill="white" transform="translate(0.5)"/>
</clipPath>
</defs>
</svg>
