<svg width="61" height="52" viewBox="0 0 61 52" fill="none" xmlns="http://www.w3.org/2000/svg">
<g clip-path="url(#clip0_3_2)">
<path d="M32.8971 30.1942C32.645 29.9617 32.3759 29.8192 32.2717 29.5982C31.8886 28.792 31.673 27.8851 31.1866 27.1528C30.4214 26 29.5528 24.898 28.5942 23.902C28.2379 23.5314 27.5171 23.4744 26.9461 23.3523C23.3443 22.5791 21.3158 20.6975 20.2165 17.0388C23.3755 17.0824 25.7336 18.5871 27.5813 20.9898C28.5755 22.2824 29.4753 23.6481 30.5381 25.1501C30.2708 23.0539 30.1283 21.2089 29.7755 19.4049C29.4949 17.9715 28.7751 16.8481 27.1742 16.3394C23.9314 15.3096 22.1933 12.8748 21.3648 9.55011C26.8321 9.79866 28.1131 14.0731 29.7354 18.1755C29.7354 15.9804 29.7755 14.008 29.7069 12.0401C29.69 11.5492 29.339 11.0628 29.1118 10.5889C27.3452 6.90156 27.6125 3.00757 29.8806 0C31.4539 2.15768 31.9982 4.58085 31.6561 7.14566C31.4566 8.63875 30.8962 10.0837 30.4953 11.5492C30.4517 11.7078 30.3439 11.8619 30.343 12.0187C30.3332 14.204 30.3359 16.3884 30.3359 18.5737C30.4347 18.5942 30.5336 18.6147 30.6325 18.6352C30.89 17.8895 31.1759 17.1528 31.4004 16.3973C32.0953 14.0552 33.118 11.9038 35.1884 10.4713C36.0659 9.86459 37.1065 9.49131 38.2414 8.92829C38.1042 11.8575 37.0085 13.9688 34.8098 15.4931C34.482 15.7203 34.1666 16.0089 33.7995 16.1274C31.7488 16.7884 31.1216 18.4107 30.8526 20.3118C30.6013 22.0873 30.7777 23.8067 31.4325 25.6365C31.9946 24.18 32.4802 22.865 33.0085 21.5679C34.1301 18.8134 36.0294 16.914 39.0156 16.2584C39.4272 16.1684 39.8583 16.1684 40.4338 16.1114C39.8174 18.351 38.8837 20.1853 36.9212 21.3283C36.2913 21.6953 35.6526 22.1203 34.9612 22.2913C32.8392 22.8169 32.2468 24.4347 32.2085 26.2539C32.1826 27.486 32.6227 28.7278 32.8971 30.1933V30.1942Z" fill="#88AB8E"/>
<path d="M3.49488 36.5702V36.824C3.20713 36.833 2.98887 36.8641 2.84009 36.9194C2.69221 36.9746 2.59243 37.0762 2.54165 37.224C2.49087 37.3728 2.46504 37.6036 2.46504 37.9163V44.2699C2.46504 44.5577 2.4882 44.7742 2.53453 44.9176C2.58085 45.0619 2.67439 45.1572 2.81426 45.2036C2.95413 45.2499 3.15546 45.2739 3.41827 45.2739H4.2441C4.60847 45.2739 4.91582 45.2232 5.16526 45.1216C5.41471 45.02 5.62495 44.8677 5.79422 44.6637C5.96348 44.4606 6.09444 44.1978 6.18798 43.8762C6.28152 43.5546 6.35279 43.1768 6.40357 42.7448H6.69578C6.66994 43.0156 6.65747 43.3719 6.65747 43.812C6.65747 43.9813 6.6637 44.229 6.67618 44.555C6.68865 44.8811 6.71181 45.2178 6.74566 45.5653C6.31359 45.5483 5.82629 45.5376 5.28464 45.5332C4.7421 45.5287 4.25925 45.5269 3.83609 45.5269H3.08597C2.7813 45.5269 2.45257 45.5287 2.10156 45.5332C1.74967 45.5376 1.39422 45.5421 1.0343 45.5457C0.674393 45.5501 0.328736 45.5563 -0.00088501 45.5644V45.3105C0.286866 45.2935 0.503347 45.2597 0.646776 45.2089C0.791097 45.1581 0.88642 45.0566 0.932745 44.9042C0.97907 44.7519 1.00223 44.5229 1.00223 44.2183V37.9154C1.00223 37.6018 0.97907 37.371 0.932745 37.2232C0.88642 37.0753 0.788425 36.9737 0.64054 36.9185C0.492656 36.8632 0.278848 36.8321 -0.00088501 36.8232V36.5693C0.194215 36.5782 0.44544 36.5862 0.755462 36.5951C1.06459 36.604 1.39689 36.6076 1.75324 36.6076C2.07484 36.6076 2.39466 36.6031 2.7127 36.5951C3.03074 36.5871 3.29087 36.5782 3.49399 36.5693L3.49488 36.5702Z" fill="#88AB8E"/>
<path d="M13.3808 38.8704V44.1951C13.3808 44.5764 13.4468 44.8579 13.5777 45.0405C13.7087 45.2232 13.9483 45.314 14.2958 45.314V45.5813C14.033 45.5555 13.7702 45.543 13.5082 45.543C13.2285 45.543 12.9621 45.5555 12.7074 45.5813C12.4535 45.6071 12.22 45.6535 12.008 45.7212V44.3359C11.796 44.8445 11.502 45.2062 11.1252 45.4227C10.7483 45.6383 10.3519 45.747 9.93675 45.747C9.62316 45.747 9.35679 45.7025 9.13586 45.6134C8.91581 45.5243 8.73319 45.4085 8.58976 45.2641C8.43742 45.0949 8.3314 44.8766 8.27172 44.6094C8.21203 44.3421 8.18263 44.0053 8.18263 43.5991V40.3964C8.18263 40.0151 8.11938 39.7336 7.99198 39.551C7.86459 39.3693 7.62316 39.2775 7.26771 39.2775V39.0103C7.53853 39.0361 7.80134 39.0486 8.05524 39.0486C8.33497 39.0486 8.60134 39.0334 8.85613 39.004C9.11002 38.9746 9.34343 38.9301 9.55546 38.8704V43.9537C9.55546 44.1996 9.57238 44.4241 9.60624 44.6272C9.64009 44.8303 9.72027 44.9915 9.84766 45.11C9.97506 45.2285 10.1782 45.2882 10.4579 45.2882C10.7546 45.2882 11.0192 45.1991 11.2526 45.0209C11.4851 44.8428 11.6695 44.6013 11.8049 44.2967C11.9403 43.992 12.008 43.6481 12.008 43.2677V40.3955C12.008 40.0143 11.9448 39.7327 11.8174 39.5501C11.69 39.3684 11.4486 39.2766 11.0931 39.2766V39.0094C11.3639 39.0352 11.6267 39.0477 11.8806 39.0477C12.1604 39.0477 12.4267 39.0325 12.6815 39.0031C12.9354 38.9737 13.1688 38.9292 13.3808 38.8695V38.8704Z" fill="#88AB8E"/>
<path d="M17.2695 38.8321C17.608 38.8321 17.9029 38.8855 18.1523 38.9907C18.4018 39.0967 18.5826 39.192 18.6922 39.2766C18.9719 39.4967 19.1457 39.3532 19.2134 38.8445H19.4931C19.4762 39.0815 19.4637 39.3675 19.4548 39.7025C19.4459 40.0374 19.4423 40.4802 19.4423 41.0307H19.1626C19.1118 40.7172 19.0245 40.4125 18.9025 40.1158C18.7795 39.8192 18.6013 39.5742 18.3688 39.3791C18.1354 39.184 17.8325 39.0869 17.4601 39.0869C17.1804 39.0869 16.9479 39.1653 16.7608 39.3221C16.5746 39.4788 16.4811 39.7096 16.4811 40.0143C16.4811 40.2682 16.5577 40.4891 16.71 40.6753C16.8624 40.8615 17.0592 41.0352 17.3007 41.1964C17.5421 41.3577 17.8022 41.5314 18.082 41.7176C18.3955 41.9296 18.6771 42.139 18.9274 42.3466C19.1768 42.5541 19.3764 42.7849 19.5243 43.0388C19.6722 43.2927 19.747 43.5893 19.747 43.9287C19.747 44.3189 19.6428 44.6486 19.4361 44.9203C19.2285 45.1911 18.955 45.3969 18.6165 45.5368C18.278 45.6766 17.9047 45.7461 17.4984 45.7461C17.2953 45.7461 17.1047 45.7274 16.9265 45.6891C16.7483 45.6508 16.5835 45.6018 16.4312 45.543C16.3376 45.4922 16.2468 45.4396 16.1577 45.3844C16.0686 45.3292 15.9822 45.2766 15.8976 45.2258C15.8129 45.167 15.7363 45.1751 15.6686 45.2517C15.6009 45.3283 15.5501 45.4637 15.5163 45.6579H15.2365C15.2535 45.3871 15.2659 45.0566 15.2748 44.6664C15.2829 44.2771 15.2873 43.7604 15.2873 43.1163H15.567C15.6258 43.5822 15.7149 43.9929 15.8343 44.3492C15.9528 44.7047 16.1283 44.9826 16.3617 45.1813C16.5942 45.3809 16.9149 45.4797 17.3212 45.4797C17.4824 45.4797 17.6428 45.4441 17.804 45.3719C17.9653 45.2998 18.098 45.1831 18.204 45.0227C18.31 44.8624 18.3626 44.6459 18.3626 44.3751C18.3626 44.0027 18.2334 43.6953 17.9751 43.4539C17.7167 43.2125 17.3844 42.9568 16.9773 42.6851C16.6895 42.482 16.416 42.2806 16.1577 42.0811C15.8993 41.8824 15.6891 41.6579 15.5287 41.4076C15.3675 41.1581 15.2873 40.8588 15.2873 40.5114C15.2873 40.1301 15.3782 39.8165 15.5608 39.5706C15.7425 39.3247 15.9866 39.1403 16.2913 39.0174C16.596 38.8944 16.9221 38.833 17.2695 38.833V38.8321Z" fill="#88AB8E"/>
<path d="M22.8472 35.6169V40.2423C23.0592 39.7176 23.3577 39.3506 23.7434 39.143C24.1292 38.9354 24.5381 38.8312 24.9702 38.8312C25.3087 38.8312 25.5866 38.8757 25.8022 38.9648C26.0178 39.0539 26.1978 39.1742 26.3421 39.3274C26.4944 39.4886 26.6049 39.6962 26.6726 39.9501C26.7403 40.204 26.7742 40.547 26.7742 40.9791V44.3849C26.7742 44.7403 26.8436 44.9817 26.9835 45.1091C27.1234 45.2365 27.3586 45.2998 27.6891 45.2998V45.567C27.5367 45.559 27.3078 45.5483 27.0031 45.535C26.6984 45.5216 26.4018 45.5163 26.114 45.5163C25.8263 45.5163 25.5269 45.5225 25.2436 45.535C24.9595 45.5474 24.7501 45.5581 24.6147 45.567V45.2998C24.9024 45.2998 25.1056 45.2365 25.2249 45.1091C25.3434 44.9817 25.4031 44.7403 25.4031 44.3849V40.6236C25.4031 40.3777 25.3817 40.1559 25.3399 39.9564C25.2971 39.7577 25.2062 39.5964 25.0664 39.4735C24.9265 39.3506 24.7207 39.2891 24.4499 39.2891C24.1452 39.2891 23.8717 39.3764 23.6303 39.5492C23.3889 39.7229 23.1982 39.9626 23.0583 40.2673C22.9185 40.5719 22.849 40.9194 22.849 41.3096V44.3849C22.849 44.7403 22.9078 44.9817 23.0272 45.1091C23.1457 45.2365 23.3488 45.2998 23.6374 45.2998V45.567C23.4931 45.559 23.2837 45.5483 23.0085 45.535C22.7332 45.5225 22.4517 45.5163 22.163 45.5163C21.8744 45.5163 21.5635 45.5225 21.2543 45.535C20.9452 45.5474 20.7145 45.5581 20.5621 45.567V45.2998C20.8926 45.2998 21.1278 45.2365 21.2677 45.1091C21.4076 44.9817 21.4771 44.7403 21.4771 44.3849V37.1421C21.4771 36.7608 21.4111 36.4793 21.2802 36.2967C21.1483 36.1149 20.9096 36.0232 20.5621 36.0232V35.7559C20.833 35.7817 21.0958 35.7942 21.3497 35.7942C21.6294 35.7942 21.8958 35.7791 22.1506 35.7497C22.4045 35.7203 22.6379 35.6757 22.8499 35.616L22.8472 35.6169Z" fill="#88AB8E"/>
<path d="M35.8726 36.392C36.4321 36.392 36.8846 36.4748 37.2321 36.6396C37.5795 36.8044 37.8967 36.9978 38.1853 37.2178C38.2958 37.3024 38.3804 37.3452 38.4392 37.3452C38.6005 37.3452 38.7065 37.0869 38.7572 36.5701H39.0494C39.0325 36.8926 39.0201 37.2802 39.0111 37.7327C39.0022 38.1862 38.9987 38.7893 38.9987 39.5439H38.7065C38.6468 39.1376 38.5684 38.7608 38.4713 38.4125C38.3742 38.065 38.2067 37.7684 37.9697 37.5234C37.7408 37.2526 37.4423 37.0405 37.0735 36.8882C36.7047 36.7359 36.3305 36.6592 35.9492 36.6592C35.5082 36.6592 35.1189 36.767 34.7804 36.9835C34.4419 37.1991 34.1559 37.5065 33.9225 37.9047C33.6891 38.3029 33.5118 38.7706 33.3889 39.3087C33.2659 39.8468 33.2045 40.4374 33.2045 41.0815C33.2045 42.6067 33.4397 43.7229 33.91 44.4294C34.3804 45.1367 35.0895 45.4904 36.0383 45.4904C36.3091 45.4904 36.5443 45.4521 36.7439 45.3764C36.9425 45.2998 37.102 45.224 37.2205 45.1474C37.3648 45.0459 37.4575 44.9461 37.5002 44.849C37.5421 44.7519 37.5635 44.6227 37.5635 44.4615V43.2285C37.5635 42.8641 37.5314 42.5951 37.4682 42.4214C37.4049 42.2477 37.2793 42.1292 37.0931 42.0659C36.9069 42.0027 36.6352 41.9661 36.2797 41.9581V41.7042C36.4401 41.7131 36.6307 41.7194 36.8517 41.7229C37.0717 41.7274 37.3025 41.7318 37.5439 41.7354C37.7853 41.7399 38.0036 41.7416 38.1987 41.7416C38.5033 41.7416 38.7813 41.7372 39.0307 41.7292C39.2802 41.7212 39.486 41.7122 39.6472 41.7033V41.9572C39.469 41.9661 39.3363 41.9955 39.2472 42.0463C39.1581 42.0971 39.0993 42.1987 39.069 42.351C39.0396 42.5033 39.0245 42.7367 39.0245 43.0494V45.5652H38.7706C38.7617 45.4209 38.7305 45.265 38.6753 45.0949C38.6201 44.9256 38.5372 44.841 38.4276 44.841C38.3679 44.841 38.3074 44.8534 38.2432 44.8793C38.18 44.9051 38.0722 44.9684 37.9189 45.0699C37.6223 45.273 37.3131 45.4361 36.9915 45.559C36.669 45.682 36.3056 45.7434 35.8984 45.7434C34.9915 45.7434 34.2165 45.5635 33.5733 45.2036C32.9292 44.8436 32.4401 44.3225 32.106 43.641C31.7711 42.9595 31.6045 42.1479 31.6045 41.2071C31.6045 40.2664 31.7889 39.3728 32.1577 38.653C32.5265 37.9332 33.0299 37.3764 33.6695 36.9817C34.3091 36.588 35.0441 36.3911 35.8744 36.3911L35.8726 36.392Z" fill="#88AB8E"/>
<path d="M42.5942 35.6045V44.3849C42.5942 44.7403 42.6637 44.9817 42.8036 45.1091C42.9434 45.2365 43.1786 45.2998 43.5091 45.2998V45.567C43.3568 45.559 43.1296 45.5483 42.8294 45.535C42.5283 45.5225 42.2254 45.5163 41.9207 45.5163C41.616 45.5163 41.3087 45.5225 40.9995 45.535C40.6904 45.5474 40.4597 45.5581 40.3073 45.567V45.2998C40.6379 45.2998 40.873 45.2365 41.0129 45.1091C41.1528 44.9817 41.2223 44.7403 41.2223 44.3849V37.1287C41.2223 36.7474 41.159 36.4659 41.0316 36.2833C40.9042 36.1016 40.6628 36.0098 40.3073 36.0098V35.7425C40.5782 35.7684 40.841 35.7809 41.0949 35.7809C41.3746 35.7809 41.641 35.7657 41.8958 35.7363C42.1497 35.7069 42.3831 35.6624 42.5951 35.6027L42.5942 35.6045Z" fill="#88AB8E"/>
<path d="M47.2962 38.8321C47.8637 38.8321 48.3679 38.9506 48.808 39.1875C49.2481 39.4245 49.6 39.7978 49.8628 40.3056C50.1256 40.8143 50.2566 41.4788 50.2566 42.3002C50.2566 43.1216 50.1256 43.7853 49.8628 44.2886C49.6 44.7929 49.2481 45.1608 48.808 45.3942C48.367 45.6267 47.8637 45.7434 47.2962 45.7434C46.7287 45.7434 46.2325 45.6267 45.7844 45.3942C45.3354 45.1617 44.9817 44.7929 44.7234 44.2886C44.465 43.7844 44.3359 43.1216 44.3359 42.3002C44.3359 41.4788 44.465 40.8134 44.7234 40.3056C44.9817 39.7969 45.3354 39.4245 45.7844 39.1875C46.2334 38.9506 46.7376 38.8321 47.2962 38.8321ZM47.2962 39.0869C46.8552 39.0869 46.4953 39.339 46.2165 39.8432C45.9368 40.3474 45.7969 41.167 45.7969 42.302C45.7969 43.437 45.9368 44.2521 46.2165 44.7483C46.4962 45.2437 46.8561 45.4913 47.2962 45.4913C47.7363 45.4913 48.0864 45.2437 48.3697 44.7483C48.653 44.253 48.7955 43.4379 48.7955 42.302C48.7955 41.1662 48.6539 40.3474 48.3697 39.8432C48.0855 39.339 47.7283 39.0869 47.2962 39.0869Z" fill="#88AB8E"/>
<path d="M53.7889 39.0102V39.2775C53.5858 39.2775 53.4058 39.2927 53.249 39.3221C53.0922 39.3515 52.9907 39.4298 52.9443 39.5572C52.898 39.6846 52.9292 39.9091 53.0397 40.2307L54.3234 44.0178L54.2094 44.0686L55.9501 38.9728L56.204 39.0869L54.0054 45.6187H53.5858L51.527 39.9893C51.3915 39.6508 51.2579 39.4477 51.127 39.3791C50.9951 39.3114 50.8829 39.2775 50.7902 39.2775V39.0102C50.9933 39.0361 51.2036 39.0548 51.4192 39.0673C51.6348 39.0797 51.8744 39.086 52.1372 39.086C52.4 39.086 52.6771 39.078 52.9693 39.0601C53.2615 39.0432 53.535 39.0263 53.7889 39.0094V39.0102ZM60.6512 39.0102V39.2641C60.49 39.29 60.3376 39.3702 60.1942 39.5056C60.0499 39.641 59.9234 39.8824 59.8129 40.2298L58.0214 45.6178H57.6018L55.6321 40.522L55.9501 38.9719C56.0347 38.9808 56.1176 38.9826 56.1978 38.9782C56.278 38.9737 56.3608 38.9719 56.4454 38.9719L58.3519 44.1817L58.2379 44.1942L59.3559 40.7376C59.4655 40.3902 59.5082 40.1149 59.4833 39.9118C59.4575 39.7087 59.3693 39.5563 59.216 39.4539C59.0637 39.3523 58.8348 39.2891 58.5301 39.2633V39.0094C58.6824 39.0183 58.8205 39.0245 58.9434 39.0281C59.0664 39.0325 59.1893 39.037 59.3123 39.0405C59.4352 39.045 59.5599 39.0468 59.6873 39.0468C59.8735 39.0468 60.0499 39.0423 60.2147 39.0343C60.3795 39.0263 60.5265 39.0174 60.653 39.0085L60.6512 39.0102Z" fill="#88AB8E"/>
<path d="M14.5799 48.9176C14.4356 48.6673 14.2628 48.5229 13.9546 48.5229C13.6463 48.5229 13.3532 48.7537 13.3532 49.0851C13.3532 49.3978 13.6757 49.5421 13.9207 49.6526L14.1612 49.7586C14.6325 49.9653 15.0316 50.2013 15.0316 50.7777C15.0316 51.412 14.522 51.8976 13.8922 51.8976C13.3105 51.8976 12.8775 51.5225 12.7626 50.9604L13.1572 50.8499C13.2098 51.2205 13.494 51.5234 13.8833 51.5234C14.2726 51.5234 14.6289 51.2249 14.6289 50.8169C14.6289 50.4089 14.2975 50.2494 13.9608 50.0953L13.7399 49.9991C13.3167 49.8067 12.9514 49.5902 12.9514 49.0708C12.9514 48.5087 13.4272 48.1479 13.9661 48.1479C14.3697 48.1479 14.7118 48.3546 14.9033 48.71L14.5808 48.9167L14.5799 48.9176Z" fill="#88AB8E"/>
<path d="M18.9167 48.2111H19.4601L17.7577 49.8984L19.5171 51.8361H18.9595L17.4735 50.1728L17.3728 50.2735V51.8361H16.9693V48.2111H17.3728V49.7639L18.9158 48.2111H18.9167Z" fill="#88AB8E"/>
<path d="M21.6668 51.8361H21.2632V48.2111H21.6668V51.8361Z" fill="#88AB8E"/>
<path d="M23.7728 48.057L26.5996 51.0191V48.2111H27.0031V52L24.1764 49.0432V51.837H23.7728V48.0579V48.057Z" fill="#88AB8E"/>
<path d="M34.6958 49.0049C34.4071 48.7065 34.008 48.5238 33.5902 48.5238C32.7822 48.5238 32.1283 49.2258 32.1283 50.0241C32.1283 50.8223 32.7866 51.5243 33.6 51.5243C34.0089 51.5243 34.408 51.3319 34.6966 51.0432V51.543C34.384 51.7693 33.9991 51.8984 33.6151 51.8984C32.5906 51.8984 31.7256 51.0664 31.7256 50.0374C31.7256 49.0085 32.5764 48.1479 33.6151 48.1479C34.0187 48.1479 34.375 48.2637 34.6966 48.5033V49.0031L34.6958 49.0049Z" fill="#88AB8E"/>
<path d="M37.2677 50.8071L36.8303 51.8361H36.3875L38.0606 48.0374L39.6909 51.8361H39.2436L38.816 50.8071H37.2677ZM38.0517 48.98L37.4316 50.4321H38.6575L38.0517 48.98Z" fill="#88AB8E"/>
<path d="M41.8352 51.8361H41.4316V48.2111H41.9555C42.6432 48.2111 43.2829 48.3938 43.2829 49.2116C43.2829 49.7693 42.9318 50.1639 42.3742 50.212L43.5278 51.837H43.0325L41.9359 50.2459H41.8352V51.837V51.8361ZM41.8352 49.8886H41.9599C42.4169 49.8886 42.8784 49.8022 42.8784 49.2392C42.8784 48.6432 42.441 48.5853 41.9555 48.5853H41.8352V49.8886Z" fill="#88AB8E"/>
<path d="M45.3835 48.2111H47.2633V48.5862H45.7871V49.6633H47.2196V50.0383H45.7871V51.461H47.2633V51.8361H45.3835V48.2111Z" fill="#88AB8E"/>
</g>
<defs>
<clipPath id="clip0_3_2">
<rect width="60.6512" height="52" fill="white"/>
</clipPath>
</defs>
</svg>
