<?xml version="1.0" encoding="UTF-8"?>
<svg id="Layer_1" xmlns="http://www.w3.org/2000/svg" viewBox="0 0 718.99 257.8">
  <defs>
    <style>
      .cls-1 {
        fill: #4c46ff;
      }
    </style>
  </defs>
  <g>
    <g>
      <path class="cls-1" d="M299.86,94.23c0-25.56,17.63-36.93,57.16-36.93s57.16,11.37,57.16,36.93-17.63,36.93-57.16,36.93-57.16-11.37-57.16-36.93ZM397.28,94.23c0-15.96-9.7-22.53-40.26-22.53s-40.47,6.57-40.47,22.53,9.91,22.53,40.47,22.53,40.26-6.57,40.26-22.53Z"/>
      <path class="cls-1" d="M420.03,149.09v-71.97h13.67l1.25,8.03c10.64-4.8,23.68-9.07,37.13-9.07,19.71,0,31.29,7.72,31.29,26.81,0,20.65-15.12,27.96-38.07,27.96-10.54,0-20.97-1.25-29.62-2.82v21.07h-15.65ZM435.67,95.38v20.76c9.18,1.04,20.65,2.09,30.46,2.09,14.08,0,21.7-4.07,21.7-15.02,0-10.01-5.32-14.19-18.57-14.19-9.81,0-21.7,2.61-33.59,6.36Z"/>
      <path class="cls-1" d="M524.76,129.8h-15.54V51.57h15.54v78.23Z"/>
      <path class="cls-1" d="M531.64,77.12h15.54v20.44c0,10.22,5.42,14.19,21.38,14.19,10.22,0,20.65-1.56,31.29-4.07v-30.56h15.65v42.25c0,23.16-13.04,30.67-42.45,30.67-13.04,0-27.54-1.98-37.66-4.8l2.92-12.1c11.37,2.92,23.16,4.69,35.67,4.69,20.24,0,27.22-4.59,26.6-17.52l-.31-1.98c-10.33,3.55-22.84,6.36-35.36,6.36-23.99,0-33.27-7.61-33.27-24.83v-22.74Z"/>
      <path class="cls-1" d="M617.6,129.8l37.13-26.81-36.72-25.87h22.22l25.66,18.04,25.45-18.04h21.91l-36.4,25.87,37.34,26.81h-22.22l-26.29-18.88-26.18,18.88h-21.9Z"/>
    </g>
    <g>
      <path class="cls-1" d="M297.21,169.63v-3.59h42.23v3.59h-19.05v27.79h-4.14v-27.79h-19.05Z"/>
      <path class="cls-1" d="M372.24,193.09l.78,3.04c-3.68.97-9.89,1.79-15.78,1.79-12.28,0-18.59-2.99-18.59-11.96s6.72-11.96,17.8-11.96c10.17,0,17.53,2.62,17.53,10.95,0,.69-.09,1.7-.18,2.12h-31.33c.55,6.17,5.47,7.64,15.04,7.64,6.58,0,12.51-1.1,14.72-1.61ZM342.48,184.67h27.7c-.37-5.2-3.63-7.82-13.85-7.82-8.79,0-13.34,1.93-13.85,7.82Z"/>
      <path class="cls-1" d="M398.83,174c5.7,0,10.72.74,14.26,1.56l-.78,3.27c-3.04-.69-7.36-1.43-13.94-1.43-11.27,0-15.64,2.02-15.64,8.51s4.37,8.6,15.64,8.6c6.58,0,10.9-.74,13.94-1.43l.78,3.22c-3.54.87-8.24,1.56-14.26,1.56-14.12,0-20.01-3.36-20.01-11.96s5.89-11.92,20.01-11.92Z"/>
      <path class="cls-1" d="M418.88,162.91h3.91v14.81c4.88-2.07,10.72-3.73,16.84-3.73,8.19,0,13.11,3.13,13.11,11.09v12.33h-3.91v-12.01c0-5.06-2.85-8.05-10.49-8.05-4.23,0-9.71,1.15-15.55,3.27v16.79h-3.91v-34.5Z"/>
      <path class="cls-1" d="M459.09,174.51h3.36l.41,3.4c4.92-2.12,10.77-3.91,16.93-3.91,8.23,0,13.16,3.13,13.16,11.09v12.33h-3.91v-12.01c0-5.06-2.85-8.05-10.49-8.05-4.23,0-9.71,1.15-15.55,3.27v16.79h-3.91v-22.91Z"/>
      <path class="cls-1" d="M517.65,174c13.25,0,19.32,3.63,19.32,11.96s-6.07,11.96-19.32,11.96-19.28-3.68-19.28-11.96,6.07-11.96,19.28-11.96ZM517.65,194.52c11.27,0,15.41-2.44,15.41-8.56s-4.14-8.6-15.41-8.6-15.37,2.53-15.37,8.6,4.14,8.56,15.37,8.56Z"/>
      <path class="cls-1" d="M546.62,197.42h-3.91v-34.5h3.91v34.5Z"/>
      <path class="cls-1" d="M571.65,174c13.25,0,19.32,3.63,19.32,11.96s-6.07,11.96-19.32,11.96-19.28-3.68-19.28-11.96,6.07-11.96,19.28-11.96ZM571.65,194.52c11.27,0,15.41-2.44,15.41-8.56s-4.14-8.6-15.41-8.6-15.37,2.53-15.37,8.6,4.14,8.56,15.37,8.56Z"/>
      <path class="cls-1" d="M630.9,194.06c0,9.06-5.38,12.19-18.31,12.19-4.6,0-11.27-.74-15.92-2.12l.88-3.13c4.32,1.2,9.61,2.07,15.23,2.07,10.86,0,14.49-2.39,14.35-8.83l-.09-1.75c-4.88,2.25-11,4.05-17.3,4.05-9.29,0-13.94-3.4-13.94-11.13,0-8.51,6.86-11.36,17.25-11.36,6.76,0,13.16.83,17.85,1.66v18.36ZM610.06,193.41c5.89,0,11.59-1.56,16.93-3.68v-11.32c-4.09-.6-9.62-1.1-14.49-1.1-7.91,0-12.79,2.12-12.79,8.05s3.22,8.05,10.35,8.05Z"/>
      <path class="cls-1" d="M641.15,171.06h-3.91v-5.8h3.91v5.8ZM637.24,174.51h3.91v22.91h-3.91v-22.91Z"/>
      <path class="cls-1" d="M680.49,193.09l.78,3.04c-3.68.97-9.89,1.79-15.78,1.79-12.28,0-18.59-2.99-18.59-11.96s6.72-11.96,17.8-11.96c10.17,0,17.53,2.62,17.53,10.95,0,.69-.09,1.7-.18,2.12h-31.33c.55,6.17,5.47,7.64,15.04,7.64,6.58,0,12.51-1.1,14.72-1.61ZM650.72,184.67h27.7c-.37-5.2-3.63-7.82-13.85-7.82-8.79,0-13.34,1.93-13.85,7.82Z"/>
      <path class="cls-1" d="M704.13,197.92c-6.3,0-11.87-.64-16.61-1.52l.69-2.76c5.06.87,10.26,1.43,15.78,1.43,8.74,0,11.32-.55,11.32-3.54s-2.62-3.5-8.74-3.96l-10.12-.64c-5.93-.41-9.39-1.61-9.39-6.49,0-5.29,5.29-6.44,16.01-6.44,3.73,0,9.8.46,14.12,1.15l-.6,2.76c-5.25-.74-9.66-1.1-14.26-1.1-8.6,0-11.59.64-11.59,3.63s2.48,3.22,6.12,3.5l10.76.74c7.64.51,11.36,1.93,11.36,6.9s-3.77,6.35-14.86,6.35Z"/>
    </g>
  </g>
  <path class="cls-1" d="M141.83,257.8c-27.1,0-52.44-24.39-72.14-58.88-18.12-4.89-34.56-14.32-46.48-27.23C7.22,154.4-.99,130.57.09,104.61c.97-23.29,9.28-46.6,22.81-63.94C43.15,14.72,78.14-.47,116.56.01c37.34.48,70.58,15.26,89.28,39.62,7.09,4.12,13.44,9.09,18.72,14.79,25.65,27.7,25.99,70.16,1,126.21-20.93,46.95-47.14,72.78-77.9,76.79-1.95.25-3.9.38-5.83.38ZM84.36,201.84c1.58,2.49,3.18,4.9,4.81,7.22,18.55,26.44,38.8,39.7,57.05,37.32,18.33-2.39,45.2-16.52,69.17-70.28,21.65-48.57,23.22-85.44,4.7-109.72,3.32,9.31,5.44,19.18,6.07,28.8,1.08,16.4-1.51,39.93-19.93,58.9-11.24,11.57-26.77,19.52-43.62,22.68-13.32,14.95-33.83,24.23-57.43,25.76-6.97.45-13.96.21-20.82-.67ZM77,189.28c8.9,1.96,18.19,2.72,27.47,2.12,15.31-.99,29.06-5.61,39.78-13.14-.13,0-.26,0-.38,0-21.99-.6-41.34-9.26-54.5-24.39-11.67-13.41-17.78-31.42-17.22-50.7.52-17.76,6.74-35.4,17.06-48.41,13.84-17.44,35.58-27.59,61.21-28.57,9.28-.35,18.54.55,27.4,2.56-16.55-10.97-38.05-17.29-61.4-17.59-.56,0-1.11-.01-1.67-.01-34.28,0-65.23,13.53-83.06,36.38-23.79,30.49-30.67,83.75-.3,116.62,8.2,8.88,18.86,15.9,30.8,20.62-10.87-22.11-19.43-47.19-25.03-72.11l10.86-2.44c6.41,28.53,16.58,56.26,28.98,79.07ZM154.42,37.24c-1.19,0-2.39.02-3.58.07-22.34.85-41.13,9.5-52.91,24.36-16.98,21.4-21.86,59.93-.16,84.88,11.09,12.75,27.57,20.05,46.4,20.57,4.22.12,8.42-.12,12.55-.67.44-.57.87-1.15,1.29-1.74,14.27-20.14-7.07-36.55-23.57-69.13l9.94-5.03c12.79,25.26,38.72,47.11,27.49,72.27,10.15-3.55,19.29-9.18,26.39-16.49,27.86-28.69,16.59-75.19.04-98.2-12.78-6.96-28.17-10.88-43.86-10.88Z"/>
</svg>