<svg width="1280" height="879" viewBox="0 0 1280 879" fill="none" xmlns="http://www.w3.org/2000/svg">
<g clip-path="url(#clip0_347_3446)">
<path d="M811.493 879C789.121 879 765.825 874.378 742.049 865.212C716.484 855.357 690.285 840.197 664.175 820.162C615.941 783.149 568.758 730.173 527.726 666.966C476.904 588.677 439.407 500.351 422.134 418.267C418.544 401.207 415.835 384.493 414.007 368.199C278.963 427.229 118.584 512.311 -66.0489 622.969L-100 566.257C88.7022 453.164 253.954 365.543 391.162 305.824C398.1 302.805 404.988 299.847 411.816 296.955C411.909 295.33 412.014 293.716 412.13 292.108C415.235 249.019 425.923 210.552 443.895 177.775C457.666 152.667 476.53 129.42 499.964 108.669C522.633 88.6068 549.613 70.8524 580.167 55.9019C610.308 41.1552 644.022 29.0912 680.369 20.046C716.957 10.9457 756.381 4.86415 797.546 1.9721C883.915 -4.09293 976.16 3.63021 1071.72 24.9267C1174.77 47.8978 1278.49 86.0783 1379.99 138.422L1349.72 197.177C1165.12 101.982 970.66 56.0726 802.171 67.9107C657.16 78.0962 544.878 131.051 501.814 209.566C492.261 226.984 485.472 246.887 481.485 268.933C510.58 257.893 538.392 248.231 564.7 240.018C613.799 224.693 659.296 213.929 699.943 208.023C773.208 197.375 833.27 201.672 883.558 221.167C929.011 238.784 959.097 266.14 982.531 290.571C1004.42 313.388 1022.05 342.154 1034.95 376.071C1046.73 407.046 1054.33 441.673 1057.56 478.983C1063.77 551.015 1053.24 627.618 1027.89 694.686C1009.07 744.473 982.443 787.149 950.898 818.102C933.344 835.327 914.128 849.149 893.788 859.185C871.94 869.966 848.676 876.449 824.641 878.449C820.297 878.813 815.914 878.989 811.493 878.989V879ZM477.945 341.443C479.211 361.495 482.157 382.615 486.793 404.649C502.431 478.961 536.646 559.333 583.141 630.962C620.126 687.938 662.05 735.224 704.387 767.709C746.245 799.83 785.933 815.347 819.163 812.582C880.524 807.481 934.071 755.986 966.079 671.313C987.679 614.16 997.029 546.134 991.721 484.679C986.275 421.583 966.079 368.904 934.848 336.348C894.102 293.865 843.131 254.015 709.436 273.45C645.47 282.748 568.158 305.477 477.934 341.443H477.945Z" fill="url(#paint0_radial_347_3446)"/>
</g>
<defs>
<radialGradient id="paint0_radial_347_3446" cx="0" cy="0" r="1" gradientUnits="userSpaceOnUse" gradientTransform="translate(639.995 439.484) rotate(90) scale(439.516 739.995)">
<stop stop-color="#082B48"/>
<stop offset="1" stop-color="#0D1014"/>
</radialGradient>
<clipPath id="clip0_347_3446">
<rect width="1480" height="879" fill="white" transform="translate(-100)"/>
</clipPath>
</defs>
</svg>
