<svg width="127" height="35" viewBox="0 0 127 35" fill="none" xmlns="http://www.w3.org/2000/svg">
<g clip-path="url(#clip0_62_32)">
<path d="M7.65832 18.3528L11.0529 10.6452C11.0793 10.5859 11.1166 10.5309 11.1628 10.4848L21.8915 0L11.6791 19.1877C11.5912 19.3503 11.7099 19.548 11.8966 19.548H14.3816C14.8144 19.548 15.0517 20.0512 14.7771 20.3874L3.36948 34.2338L8.3658 23.448C8.52399 23.1074 8.27572 22.7207 7.9 22.7207H5.23047C4.98219 22.7207 4.76906 22.5406 4.72512 22.2967L3.03331 12.5282C2.95861 12.1019 2.70374 11.7284 2.33462 11.5043L0.5 10.3947H6.83439C7.11123 10.3947 7.33753 10.6122 7.34632 10.8891L7.60998 18.3067" fill="url(#paint0_linear_62_32)"/>
<path d="M28.6873 7.43735H31.3282L34.0791 20.2841C34.3273 21.5211 34.5185 22.5669 34.7118 23.9973C35.371 22.512 35.9225 21.4662 36.5267 20.2841L43.3203 7.43735H46.126L35.6456 27.326H32.9497L28.6851 7.43735H28.6873Z" fill="#32CD32"/>
<path d="M50.806 13.5169C54.4642 13.5169 56.9404 15.9931 56.9404 19.6228C56.9404 24.0786 53.5019 27.6555 49.1823 27.6555C45.524 27.6555 43.0215 25.1794 43.0215 21.5497C43.0215 17.0938 46.4864 13.5169 50.806 13.5169ZM49.3756 25.4562C52.155 25.4562 54.4379 22.9251 54.4379 19.7897C54.4379 17.3136 52.979 15.7184 50.6148 15.7184C47.8354 15.7184 45.5526 18.2495 45.5526 21.3849C45.5526 23.8874 47.0115 25.4562 49.3756 25.4562Z" fill="#32CD32"/>
<path d="M58.729 27.326L61.9193 7.07922H64.3955L61.2052 27.326H58.729Z" fill="#32CD32"/>
<path d="M66.1838 27.326L67.9723 15.9645H65.3862L65.7158 13.875H68.3018L68.961 9.66527H71.4372L70.778 13.875H73.3641L73.0345 15.9645H70.4485L68.6336 27.326H66.186H66.1838Z" fill="#32CD32"/>
<path d="M73.9968 27.326L77.1322 7.43735H84.3937C87.9158 7.43735 90.17 9.52904 90.17 12.7742C90.17 15.6635 88.3552 17.9727 85.3561 18.935L88.0784 27.326H85.411L82.8535 19.4316H77.8199L76.5829 27.326H73.9968ZM78.178 17.0938H82.937C85.7428 17.0938 87.5027 15.4987 87.5027 12.9412C87.5027 10.9616 86.2108 9.77731 84.0092 9.77731H79.3601L78.178 17.0938Z" fill="#32CD32"/>
<path d="M93.2814 13.875H95.729L93.611 27.326H91.1348L93.2814 13.875ZM93.5824 9.22584C93.5824 8.20855 94.4898 7.27257 95.5071 7.27257C96.3332 7.27257 96.9111 7.87678 96.9111 8.67435C96.9111 9.69163 96.0037 10.6276 95.0127 10.6276C94.1866 10.6276 93.5824 10.0234 93.5824 9.22364V9.22584Z" fill="#32CD32"/>
<path d="M97.4338 21.6881C97.4338 16.9576 100.488 13.5191 104.559 13.5191C106.732 13.5191 108.466 14.5913 109.099 16.3248L110.529 7.08142H113.005L109.815 27.3282H107.558L107.723 24.9355C106.567 26.7239 104.944 27.6577 102.826 27.6577C99.6903 27.6577 97.4338 25.2101 97.4338 21.6881ZM108.466 19.5415C108.466 17.1488 107.145 15.7184 104.862 15.7184C102.083 15.7184 99.9386 18.2495 99.9386 21.5497C99.9386 23.916 101.314 25.4562 103.487 25.4562C106.266 25.4562 108.466 22.8701 108.466 19.5415Z" fill="#32CD32"/>
<path d="M113.609 21.6595C113.609 17.0653 116.8 13.5169 120.954 13.5169C124.777 13.5169 127.005 16.2677 126.401 20.1193L126.263 21.0553L116.031 21.0817V21.5211C116.031 24.0237 117.377 25.5639 119.608 25.5639C121.368 25.5639 122.853 24.6828 123.459 23.1712H125.935C125.028 25.922 122.47 27.6555 119.526 27.6555C115.949 27.6555 113.612 25.2892 113.612 21.6595H113.609ZM116.334 19.4052H124.035C124.393 17.1224 123.073 15.6086 120.845 15.6086C118.617 15.6086 116.993 17.1488 116.334 19.4052Z" fill="#32CD32"/>
</g>
<defs>
<linearGradient id="paint0_linear_62_32" x1="11.5231" y1="5.7829" x2="3.52768" y2="25.6232" gradientUnits="userSpaceOnUse">
<stop stop-color="#00E9B5"/>
<stop offset="1" stop-color="#68E105"/>
</linearGradient>
<clipPath id="clip0_62_32">
<rect width="126" height="34.2338" fill="white" transform="translate(0.5)"/>
</clipPath>
</defs>
</svg>
